<?xml version="1.0" encoding="UTF-8"?>
<svg xmlns="http://www.w3.org/2000/svg" xmlns:xlink="http://www.w3.org/1999/xlink" viewBox="0 0 929.18 270.9">
  <defs>
    <style>
      .cls-1 {
        fill: #fefefe;
      }

      .cls-1, .cls-2 {
        fill-rule: evenodd;
      }

      .cls-3 {
        fill: none;
      }

      .cls-4, .cls-2 {
        fill: #af1e2e;
      }

      .cls-5 {
        clip-path: url(#clippath);
      }
    </style>
    <clipPath id="clippath">
      <circle class="cls-3" cx="165.59" cy="132.76" r="129.75" transform="translate(-45.38 155.98) rotate(-45)"/>
    </clipPath>
  </defs>
  <g id="temple_icon"  data-name="temple icon">
    <g id="Temple_Silhouette">
      <g class="cls-5">
        <path class="cls-2" d="M76.95,127.28l.03-32.64h2.59c.08,0,.15-.12.13-.19-.11-.34-.95-3.31-1.08-3.31h-1.6c.99-2.3-.57-4.44-2.86-4.56-.43-.04-.45-1.15-.79-1.14-.45,0-.24,1.16-.95,1.16l.08-6.02h2.81c.09,0,.17-.13.14-.21l-1.11-3.33c.06-.09.04-.25-.11-.25l-1.52-.03c.83-2.74-1.3-4.72-3.48-4.94-.51-.02-.65-1.68-.85-1.68-.22,0-.42,1.74-.99,1.72-2.21.18-4.2,2.47-3.32,4.99l-3.1-.05c-.15,0-.17.16-.11.25l1.46,3.54,1.52.05c0,1.09-.03,2.66-.02,3.43l-60.26-.32v-3.45s3.1.04,3.39.01c.28-.02.16-.27.16-.27l-3.42-3.79c-1.13-1.25,1.27-2.56-3.73-4.68v199.31h331.19V71.55c-5,2.12-2.6,3.42-3.73,4.68l-3.42,3.79s-.13.25.16.27c.29.02,3.39-.01,3.39-.01v3.45l-60.26.32c.02-.77-.02-2.35-.02-3.43l1.52-.05,1.46-3.54c.06-.09.04-.25-.11-.25l-3.1.05c.89-2.51-1.1-4.81-3.32-4.99-.56.02-.76-1.72-.99-1.72-.2,0-.34,1.66-.85,1.68-2.18.23-4.31,2.2-3.48,4.94l-1.52.03c-.15,0-.17.16-.11.25l-1.11,3.33c-.03.08.05.21.14.21h2.81s.08,6.02.08,6.02c-.7,0-.5-1.16-.95-1.16-.33,0-.36,1.1-.79,1.14-2.29.12-3.85,2.26-2.86,4.58h-1.6c-.12-.01-.97,2.95-1.08,3.29-.02.07.05.2.13.2h2.59s.03,32.64.03,32.64H76.95Z"/>
        <path class="cls-2" d="M162.95,63.18c-.67,2.5-1.84,4.62-4.37,4.73-2.59.12-31.34,7.08-32.23,25.93-.15.55-.48.3-.56,0-.53-5.34-10.37-7.66-11.25-7.76-1.09-.12-1.19-4.27-2.16-4.38-1.26.09-.76,4.38-2.27,4.38-1.3,0-11.2,2.11-11.44,9.6-1.13.34-2.14.71-3.04,1.11-5.26,3.38-1.41,12.44-10.79,15.73-3.97,2.45-6.05,4.93-7.12,7.38-.39.15-.32-1.6-.55-1.6-.45,0,.05,1.91-.87,1.91l.08-6.02h2.81c.09,0,.17-.13.14-.21l-1.11-3.33c.06-.09.04-.25-.11-.25l-1.52-.03c.83-2.74-1.3-4.72-3.48-4.94-.51-.02-.65-1.68-.85-1.68-.22,0-.42,1.74-.99,1.72-2.21.18-4.2,2.47-3.32,4.99l-3.1-.05c-.15,0-.17.16-.11.25l1.46,3.54,1.52.05c.01,10.84-.11,145.77-.18,156.6,65.36.05,130.71.05,196.07,0-.07-10.84-.19-145.77-.18-156.6l1.52-.05,1.47-3.54c.06-.09.04-.25-.11-.25l-3.1.05c.89-2.51-1.1-4.81-3.32-4.99-.57.02-.76-1.72-.99-1.72-.2,0-.34,1.66-.85,1.68-2.18.23-4.31,2.2-3.48,4.94l-1.52.03c-.15,0-.16.16-.11.25l-1.11,3.33c-.03.08.05.21.14.21h2.81s.08,6.02.08,6.02c-.93,0-.42-1.91-.87-1.91-.23,0-.16,1.75-.55,1.6-1.07-2.45-3.15-4.93-7.12-7.38-9.38-3.29-5.53-12.35-10.79-15.73-.9-.4-1.91-.77-3.04-1.11-.24-7.5-10.14-9.6-11.44-9.6-1.51,0-1.01-4.29-2.27-4.38-.97.11-1.07,4.26-2.16,4.38-.88.1-10.72,2.42-11.25,7.76-.08.3-.41.55-.56,0-.9-18.85-29.64-25.81-32.23-25.93-2.53-.12-3.69-2.23-4.37-4.73-.52-1.66-.82-8.48-2.65-8.51-1.81,0-2.22,7.11-2.65,8.51Z"/>
      </g>
    </g>
  </g>
  <g id="outer_circle">
    <path id="outer_circle-2" data-name="outer_circle" class="cls-4" d="M165.59,265.52c-73.21,0-132.76-59.56-132.76-132.76S92.39,0,165.59,0s132.76,59.56,132.76,132.76-59.56,132.76-132.76,132.76ZM165.59,6.03c-69.88,0-126.74,56.85-126.74,126.74s56.85,126.74,126.74,126.74,126.74-56.85,126.74-126.74S235.48,6.03,165.59,6.03Z"/>
  </g>
  <g id="tilak">
    <path id="tilak-2" data-name="tilak" class="cls-1" d="M140.97,102.95c-.07.88-.28.99-.28,1.96v52.89c0,9.07.13,18.89,3.39,26.55l2.84,4.44c.68.76.96,1.3,1.67,1.97,2.23,2.1,9.33,6.53,12.25,6.78-.31,1.15-.78.87-1.9,1.46-2.9,1.51-3.88,2.24-6.15,4.49-6,5.95-4.84,13.4-1.28,20.45,2.14,4.23,3.63,8.36,6.37,12.94l4.86,8.01c.45.68.76,1.16,1.25,1.83.59.81.79,1.22,1.89,1.47,1.75-1.17,6.06-8.54,7.41-11.06.82-1.52,1.55-2.65,2.29-4.14.73-1.47,1.27-2.71,2.01-4.15l3.71-8.6c1.41-4.24,1.36-3.59,1.36-7.59,0-3.53-2.31-7.43-4.12-9.31-1.3-1.36-6.24-4.78-8.19-5.24v-.56c2.32-.05,7.15-2.92,8.83-4.04,5.9-3.93,8.68-8.86,10.18-15.56.67-2.97,1.13-8.19,1.13-11.74v-62.4c0-1.61-4.41-1.12-6.44-1.12-1.83,0-1.96,1.33-1.96,3.64,0,10.13-.3,22.36.28,32.18.06.96-.02,1.8-.13,2.69l-.59,31.01c-.94,4.53-2.26,10.31-5.79,13.52-.33.3-.27.23-.61.51-1.75,1.46-3.29,2.26-5.67,2.72-24.87,4.82-20.51-29.68-20.51-46.82v-38.9c-2.44-1.17-6.29-.32-8.11-.28Z"/>
  </g>
  <g id="hare_krishna_text" data-name="hare krishna text">
    <path id="hare_krishna_text-2" data-name="hare krishna text" class="cls-4" d="M394.06,28.25v34.44h-6.96v-15.89h-14.46v15.89h-6.96V28.25h6.96v16.98h14.46v-16.98h6.96ZM441.93,62.75h-6.91l-4.98-12.24h-14.01l-4.98,12.24h-1.68l14.11-34.49h4.39l14.06,34.49h0ZM429.65,49.52l-6.61-16.14-6.61,16.14h13.23ZM489.66,62.65h-7.06l-7.8-12.14c-.59.07-1.33.12-2.22.15-.89.03-1.66.05-2.32.05h-6.07l.05,11.99h-6.96V28.2h4.39c1.32.03,2.78.05,4.39.05h4.93c2.5,0,4.84.15,7.01.44,2.17.3,4.05.86,5.65,1.68,1.6.82,2.85,1.94,3.78,3.36.92,1.41,1.38,3.24,1.38,5.48,0,1.45-.2,2.71-.59,3.8-.39,1.09-.94,2.02-1.63,2.81-.69.79-1.51,1.46-2.47,2-.95.54-2.01,1.01-3.16,1.41l8.69,13.42h0ZM469.82,49.22c1.55,0,3.04-.15,4.49-.44,1.45-.3,2.73-.81,3.85-1.55,1.12-.74,2.02-1.76,2.69-3.06.67-1.3,1.01-2.97,1.01-5.01,0-1.84-.3-3.36-.89-4.54-.59-1.18-1.41-2.13-2.47-2.84-1.05-.71-2.31-1.2-3.78-1.48-1.46-.28-3.07-.42-4.81-.42h-5.68v1.01c0,.21,0,.43-.02.64-.02.21-.02.49-.02.84v16.85h5.63ZM532.54,62.7h-26.55V28.2h25.41v1.73h-18.51v13.37h14.36v1.68h-14.36c0,2.4.02,4.66.05,6.76v9.33h19.59v1.63h0ZM579.92,41.53c.07.1.29.47.67,1.11.38.64.85,1.47,1.41,2.49.56,1.02,1.19,2.16,1.9,3.43.71,1.27,1.42,2.54,2.15,3.82,1.74,3.06,3.68,6.5,5.82,10.31l-7.75.05c-1.58-2.76-3.01-5.25-4.29-7.45-.53-.95-1.06-1.89-1.6-2.81-.54-.92-1.03-1.77-1.46-2.54-.43-.77-.79-1.41-1.09-1.92-.3-.51-.48-.81-.54-.91l-4.39,5.23v10.36h-6.96V28.25h6.96v21.66l18.36-21.71h2.02l-11.2,13.32h0ZM639.74,62.65h-7.06l-7.8-12.14c-.59.07-1.33.12-2.22.15-.89.03-1.66.05-2.32.05h-6.07l.05,11.99h-6.96V28.2h4.39c1.32.03,2.78.05,4.39.05h4.93c2.5,0,4.84.15,7.01.44,2.17.3,4.05.86,5.65,1.68,1.6.82,2.85,1.94,3.78,3.36.92,1.41,1.38,3.24,1.38,5.48,0,1.45-.2,2.71-.59,3.8-.39,1.09-.94,2.02-1.63,2.81-.69.79-1.51,1.46-2.47,2-.95.54-2.01,1.01-3.16,1.41l8.69,13.42h0ZM619.9,49.22c1.55,0,3.04-.15,4.49-.44,1.45-.3,2.73-.81,3.85-1.55,1.12-.74,2.02-1.76,2.69-3.06.67-1.3,1.01-2.97,1.01-5.01,0-1.84-.3-3.36-.89-4.54-.59-1.18-1.41-2.13-2.47-2.84-1.05-.71-2.31-1.2-3.78-1.48-1.46-.28-3.07-.42-4.81-.42h-5.68v1.01c0,.21,0,.43-.02.64-.02.21-.02.49-.02.84v16.85h5.63ZM656.82,62.7V28.25h6.96v34.44h-6.96ZM689.64,34.12c0,1.12.35,2.06,1.06,2.81.71.76,1.65,1.42,2.84,2,1.18.58,2.52,1.09,4.02,1.55,1.5.46,3.02.95,4.56,1.46,1.55.51,3.07,1.08,4.56,1.7,1.5.63,2.84,1.41,4.02,2.34,1.18.94,2.13,2.06,2.84,3.36.71,1.3,1.06,2.87,1.06,4.71,0,1.71-.45,3.14-1.36,4.29-.9,1.15-2.17,2.07-3.8,2.76-1.63.69-3.57,1.18-5.82,1.48-2.25.3-4.73.44-7.43.44-1.38,0-2.82-.16-4.32-.49-1.5-.33-2.95-.78-4.37-1.36-1.41-.58-2.71-1.24-3.9-2-1.18-.76-2.12-1.56-2.81-2.42l2.42-8.24c0,1.38.3,2.82.91,4.32.61,1.5,1.48,2.88,2.62,4.15,1.14,1.27,2.51,2.3,4.12,3.11,1.61.81,3.4,1.21,5.38,1.21.95,0,2.09-.07,3.4-.2,1.32-.13,2.57-.42,3.78-.86,1.2-.44,2.22-1.12,3.06-2.02.84-.9,1.26-2.11,1.26-3.63,0-1.18-.36-2.2-1.09-3.03-.72-.84-1.67-1.59-2.84-2.25-1.17-.66-2.5-1.24-4-1.75-1.5-.51-3.03-1.02-4.61-1.53-1.58-.51-3.12-1.04-4.61-1.58-1.5-.54-2.83-1.18-4-1.9-1.17-.72-2.11-1.56-2.84-2.52-.72-.95-1.09-2.09-1.09-3.4,0-1.22.29-2.36.86-3.43.58-1.07,1.46-2.01,2.64-2.81,1.18-.81,2.68-1.44,4.49-1.9,1.81-.46,3.95-.69,6.42-.69.49,0,1.35.06,2.57.17,1.22.12,2.53.32,3.92.62,1.4.3,2.75.68,4.05,1.16,1.3.48,2.26,1.08,2.89,1.8v8.29c-.36-1.51-.95-2.92-1.75-4.22-.81-1.3-1.78-2.42-2.91-3.36-1.14-.94-2.41-1.68-3.82-2.22-1.41-.54-2.91-.81-4.49-.81-2.47,0-4.4.47-5.8,1.41-1.4.94-2.1,2.1-2.1,3.48h0ZM759.47,28.25v34.44h-6.96v-15.89h-14.46v15.89h-6.96V28.25h6.96v16.98h14.46v-16.98h6.96ZM804.72,62.89c-.4,0-.81-.14-1.23-.42-.43-.28-.97-.83-1.63-1.65-.66-.82-1.47-1.88-2.44-3.16-.97-1.28-2.02-2.69-3.16-4.22-1.14-1.53-2.33-3.13-3.58-4.81-1.25-1.68-2.48-3.33-3.68-4.96-1.2-1.63-2.35-3.18-3.45-4.66-1.1-1.48-2.07-2.8-2.91-3.95-.84-1.15-1.52-2.08-2.05-2.79-.53-.71-.82-1.09-.89-1.16v31.63h-1.68V28.2h7.01l18.01,24.48v-24.48h1.68v34.69h0ZM852.6,62.75h-6.91l-4.98-12.24h-14.01l-4.98,12.24h-1.68l14.11-34.49h4.39l14.06,34.49h0ZM840.31,49.52l-6.61-16.14-6.61,16.14h13.22Z"/>
  </g>
  <g id="hare_krihsna_text_ouline" data-name="hare krihsna text ouline">
    <path id="hare_krihsna_text_ouline-2" data-name="hare krihsna text ouline" class="cls-4" d="M696.2,63.2c-1.39,0-2.85-.17-4.35-.5-1.5-.33-2.98-.79-4.39-1.36-1.42-.58-2.74-1.25-3.92-2.01-1.19-.76-2.15-1.59-2.85-2.45l-.05-.07.02-.08,2.42-8.24.32.05c0,1.35.3,2.79.9,4.26.6,1.47,1.47,2.85,2.59,4.1,1.12,1.24,2.49,2.28,4.07,3.07,1.58.79,3.37,1.19,5.31,1.19.94,0,2.08-.07,3.39-.2,1.3-.13,2.55-.42,3.74-.85,1.17-.43,2.18-1.1,3-1.98.81-.87,1.21-2.05,1.21-3.52,0-1.14-.35-2.12-1.04-2.93-.71-.82-1.65-1.56-2.79-2.21-1.15-.65-2.49-1.23-3.97-1.74-1.47-.5-3.02-1.02-4.61-1.53-1.57-.51-3.13-1.04-4.62-1.58-1.5-.54-2.86-1.19-4.03-1.91-1.18-.73-2.15-1.59-2.88-2.56-.74-.98-1.12-2.16-1.12-3.5,0-1.24.3-2.42.88-3.51.59-1.09,1.49-2.05,2.69-2.87,1.19-.81,2.72-1.46,4.54-1.92,1.81-.46,3.98-.7,6.45-.7.5,0,1.35.06,2.58.17,1.22.12,2.55.32,3.94.62,1.4.3,2.77.69,4.07,1.17,1.32.48,2.31,1.11,2.95,1.85l.04.05v8.35l-.32.04c-.36-1.49-.94-2.9-1.73-4.17-.79-1.28-1.76-2.39-2.88-3.32-1.12-.92-2.39-1.66-3.78-2.19-1.39-.53-2.88-.8-4.43-.8-2.42,0-4.34.46-5.71,1.38-1.34.9-2.03,2.03-2.03,3.34,0,1.07.34,1.98,1.02,2.7.69.74,1.63,1.4,2.79,1.96,1.17.57,2.52,1.09,4,1.55,1.48.45,3.02.94,4.57,1.46,1.54.51,3.08,1.08,4.58,1.71,1.5.63,2.87,1.42,4.06,2.37,1.2.95,2.17,2.09,2.88,3.41.72,1.32,1.08,2.93,1.08,4.79,0,1.74-.47,3.22-1.39,4.39-.92,1.17-2.22,2.11-3.86,2.81-1.64.69-3.61,1.2-5.87,1.49-2.25.3-4.76.45-7.45.45ZM680.98,56.74c.67.81,1.59,1.59,2.72,2.32,1.17.75,2.47,1.42,3.87,1.99,1.4.57,2.86,1.02,4.34,1.35,1.48.32,2.92.49,4.28.49,2.68,0,5.17-.15,7.41-.44,2.23-.29,4.17-.79,5.78-1.47,1.6-.68,2.85-1.59,3.74-2.71.88-1.12,1.32-2.53,1.32-4.19,0-1.81-.35-3.37-1.04-4.63-.69-1.27-1.63-2.39-2.8-3.31-1.17-.92-2.51-1.71-3.98-2.32-1.48-.62-3.02-1.19-4.55-1.7-1.55-.51-3.09-1-4.56-1.45-1.5-.46-2.86-.99-4.04-1.56-1.2-.58-2.17-1.27-2.89-2.03-.73-.78-1.1-1.77-1.1-2.92,0-1.43.73-2.65,2.17-3.61,1.42-.95,3.4-1.43,5.89-1.43,1.59,0,3.12.28,4.55.83,1.42.55,2.73,1.3,3.87,2.25,1.14.95,2.13,2.09,2.95,3.39.61.98,1.09,2.02,1.45,3.13v-7.05c-.6-.68-1.54-1.25-2.78-1.71-1.29-.47-2.64-.86-4.02-1.15-1.38-.29-2.7-.5-3.91-.61-1.21-.11-2.07-.17-2.55-.17-2.44,0-4.59.23-6.37.69-1.78.45-3.28,1.09-4.44,1.88-1.16.79-2.03,1.71-2.59,2.76-.56,1.04-.84,2.17-.84,3.35,0,1.27.35,2.39,1.05,3.31.71.93,1.65,1.77,2.79,2.48,1.15.71,2.49,1.35,3.97,1.89,1.49.54,3.04,1.07,4.61,1.58,1.59.51,3.14,1.03,4.62,1.53,1.5.51,2.85,1.1,4.02,1.76,1.18.66,2.15,1.43,2.88,2.28.75.86,1.12,1.92,1.12,3.14,0,1.55-.44,2.81-1.3,3.74-.85.92-1.9,1.61-3.12,2.07-1.21.45-2.49.74-3.82.87-1.32.13-2.47.2-3.42.2-1.99,0-3.82-.41-5.45-1.23-1.62-.81-3.03-1.87-4.17-3.15-1.14-1.28-2.03-2.69-2.64-4.19-.47-1.17-.77-2.31-.88-3.41l-2.12,7.24ZM804.89,63.06h-.16c-.43,0-.87-.15-1.32-.45-.45-.29-.99-.84-1.67-1.69-.66-.83-1.48-1.89-2.45-3.16-.97-1.28-2.02-2.69-3.16-4.22-1.13-1.53-2.33-3.13-3.58-4.81-1.25-1.68-2.48-3.33-3.68-4.96-1.2-1.63-2.35-3.18-3.46-4.66-1.1-1.48-2.07-2.8-2.91-3.95-.84-1.15-1.52-2.08-2.05-2.79-.27-.37-.46-.62-.59-.79v31.33h-2V28.04h7.25l17.77,24.14v-24.14h2v35.02ZM779.54,30.72l.28.27s.19.22.91,1.18c.53.71,1.21,1.64,2.05,2.79.84,1.15,1.81,2.47,2.91,3.95,1.1,1.48,2.25,3.04,3.45,4.66,1.2,1.63,2.43,3.28,3.68,4.96,1.25,1.68,2.44,3.28,3.58,4.81,1.13,1.53,2.19,2.94,3.16,4.22.96,1.27,1.78,2.33,2.44,3.15.64.8,1.18,1.35,1.59,1.62.34.22.67.35.98.38V28.36h-1.35v24.31l-.29.1-17.96-24.41h-6.76v34.22h1.35v-31.86ZM584.02,62.91l-.05-.08c-1.55-2.71-3-5.22-4.29-7.45-.52-.94-1.06-1.89-1.6-2.81-.57-.97-1.05-1.8-1.46-2.55-.43-.77-.79-1.41-1.08-1.92-.21-.36-.34-.58-.42-.72l-4.21,5.01v10.47h-7.28V28.09h7.28v21.38l18.12-21.43h2.45l-.23.27-11.13,13.23c.1.16.29.48.61,1.01.38.64.85,1.48,1.41,2.5.56,1.02,1.19,2.16,1.9,3.43.71,1.27,1.42,2.54,2.15,3.82,1.75,3.08,3.71,6.55,5.82,10.31l.13.24-8.12.05ZM575.15,46.83l.12.18c.09.13.35.57.55.92.3.51.66,1.15,1.09,1.93.41.74.88,1.57,1.45,2.54.55.93,1.09,1.87,1.61,2.82,1.28,2.2,2.71,4.68,4.24,7.37l7.38-.05c-2.06-3.67-3.97-7.06-5.69-10.07-.72-1.28-1.44-2.56-2.15-3.83-.71-1.27-1.34-2.41-1.9-3.43-.56-1.01-1.03-1.85-1.4-2.49-.28-.48-.59-.99-.66-1.1l-.07-.1.08-.09,10.98-13.06h-1.6l-18.31,21.66-.29-.1v-21.5h-6.63v34.12h6.63v-10.26l4.57-5.44ZM852.84,62.91h-7.26l-4.98-12.24h-13.8l-4.98,12.24h-2.03l14.25-34.82h4.61l.04.1,14.16,34.72ZM845.8,62.58h6.56l-13.93-34.17h-4.17l-13.98,34.17h1.33l4.98-12.24h14.23l4.98,12.24ZM442.18,62.91h-7.26l-.04-.1-4.94-12.14h-13.8l-4.98,12.24h-2.03l14.25-34.82h4.61l.04.1,14.16,34.72ZM435.13,62.58h6.56l-13.93-34.17h-4.17l-13.98,34.17h1.33l4.98-12.24h14.23l.04.1,4.94,12.14ZM759.63,62.86h-7.29v-15.89h-14.13v15.89h-7.28V28.09h7.28v16.98h14.13v-16.98h7.29v34.77ZM752.67,62.53h6.63V28.41h-6.63v16.98h-14.79v-16.98h-6.63v34.12h6.63v-15.89h14.79v15.89ZM663.94,62.86h-7.28V28.09h7.28v34.77ZM656.98,62.53h6.63V28.41h-6.63v34.12ZM614.49,62.86h-7.28V28.04h4.55c1.33.03,2.81.05,4.39.05h4.94c2.5,0,4.86.15,7.03.45,2.18.3,4.1.87,5.7,1.69,1.61.83,2.91,1.98,3.84,3.41.93,1.44,1.41,3.31,1.41,5.57,0,1.46-.2,2.76-.6,3.86-.4,1.1-.96,2.06-1.66,2.86-.7.8-1.54,1.48-2.51,2.03-.91.51-1.91.97-2.99,1.35l8.74,13.5h-7.44l-7.79-12.13c-.58.06-1.29.11-2.13.14-.89.03-1.67.05-2.33.05h-5.91l.05,11.99ZM607.53,62.53h6.63l-.05-11.99h6.23c.65,0,1.43-.02,2.31-.05.88-.03,1.62-.08,2.21-.15h.1s7.8,12.14,7.8,12.14h6.67l-8.64-13.35.2-.07c1.13-.39,2.19-.86,3.13-1.39.93-.53,1.75-1.19,2.43-1.96.67-.77,1.21-1.7,1.6-2.76.39-1.06.58-2.32.58-3.74,0-2.19-.46-4.01-1.36-5.39-.9-1.38-2.15-2.49-3.71-3.3-1.57-.81-3.46-1.37-5.6-1.66-2.16-.29-4.5-.44-6.99-.44h-4.94c-1.59,0-3.06-.02-4.4-.05h-4.22v34.17ZM532.71,62.86h-26.87V28.04h25.74v2.05h-18.51v13.05h14.36v2h-14.36c0,2.33.02,4.55.05,6.6v9.17h19.59v1.95ZM506.16,62.53h26.22v-1.3h-19.59v-9.49c-.03-2.09-.05-4.37-.05-6.76v-.16h14.36v-1.35h-14.36v-13.7h18.51v-1.4h-25.09v34.17ZM464.41,62.86h-7.28V28.04h4.56c1.33.03,2.81.05,4.39.05h4.93c2.5,0,4.86.15,7.03.45,2.18.3,4.1.87,5.7,1.69,1.61.83,2.9,1.98,3.84,3.41.93,1.44,1.41,3.31,1.41,5.57,0,1.46-.2,2.76-.6,3.86-.4,1.1-.96,2.06-1.66,2.86-.7.8-1.54,1.48-2.51,2.03-.91.51-1.91.97-2.99,1.35l8.74,13.5h-7.45l-7.79-12.13c-.58.06-1.29.11-2.13.14-.89.03-1.67.05-2.33.05h-5.91l.05,11.99ZM457.45,62.53h6.63l-.05-11.99h6.23c.65,0,1.43-.02,2.31-.05.88-.03,1.62-.08,2.21-.15h.1s7.8,12.14,7.8,12.14h6.67l-8.64-13.35.2-.07c1.13-.39,2.19-.86,3.13-1.39.93-.53,1.75-1.19,2.43-1.96.67-.77,1.21-1.7,1.6-2.76.39-1.06.58-2.32.58-3.74,0-2.19-.46-4.01-1.36-5.39-.9-1.38-2.15-2.49-3.71-3.3-1.57-.81-3.46-1.37-5.6-1.66-2.15-.29-4.5-.44-6.99-.44h-4.93c-1.59,0-3.07-.02-4.4-.05h-4.23v34.17ZM394.22,62.86h-7.28v-15.89h-14.13v15.89h-7.28V28.09h7.28v16.98h14.13v-16.98h7.28v34.77ZM387.27,62.53h6.63V28.41h-6.63v16.98h-14.78v-16.98h-6.63v34.12h6.63v-15.89h14.78v15.89ZM840.55,49.68h-13.71l6.7-16.36h.3l6.7,16.36ZM827.33,49.36h12.74l-6.37-15.54-6.37,15.54ZM429.89,49.68h-13.71l.09-.22,6.61-16.14h.3l6.71,16.36ZM416.66,49.36h12.74l-6.37-15.54-6.37,15.54ZM619.9,49.39h-5.79v-17.01c0-.34,0-.63.03-.85.02-.21.02-.42.02-.63v-1.17h5.84c1.75,0,3.37.14,4.84.42,1.48.28,2.77.79,3.84,1.51,1.07.72,1.92,1.7,2.52,2.9.6,1.2.91,2.75.91,4.61,0,2.06-.35,3.77-1.03,5.08-.68,1.32-1.61,2.37-2.74,3.12-1.13.75-2.44,1.28-3.91,1.58-1.45.3-2.97.45-4.52.45ZM614.44,49.06h5.46c1.53,0,3.03-.15,4.46-.44,1.42-.29,2.7-.81,3.79-1.53,1.09-.72,1.98-1.73,2.63-3,.66-1.27.99-2.93.99-4.93,0-1.81-.29-3.31-.87-4.47-.58-1.15-1.39-2.09-2.41-2.77-1.03-.69-2.28-1.18-3.71-1.46-1.45-.28-3.06-.42-4.78-.42h-5.51v.85c0,.22,0,.44-.03.65-.02.21-.02.49-.02.83v16.69ZM469.82,49.39h-5.79v-17.01c0-.36,0-.64.03-.85.02-.21.02-.42.02-.63v-1.17h5.84c1.75,0,3.37.14,4.84.42,1.48.28,2.77.79,3.84,1.51,1.07.72,1.92,1.69,2.52,2.9.6,1.2.91,2.75.91,4.61,0,2.06-.35,3.77-1.03,5.08-.68,1.32-1.61,2.37-2.74,3.12-1.13.75-2.44,1.28-3.91,1.58-1.45.3-2.97.45-4.52.45ZM464.36,49.06h5.46c1.53,0,3.03-.15,4.46-.44,1.42-.29,2.7-.81,3.79-1.53,1.09-.72,1.98-1.73,2.63-3,.66-1.27.99-2.93.99-4.93,0-1.81-.29-3.31-.87-4.47-.58-1.15-1.39-2.09-2.41-2.77-1.03-.69-2.28-1.18-3.71-1.46-1.45-.28-3.06-.42-4.78-.42h-5.51v.85c0,.22,0,.44-.02.65-.02.21-.02.48-.02.83v16.69Z"/>
  </g>
  <g id="marwar_text_fill" data-name="marwar text fill">
    <path id="marwar_text_fill-2" data-name="marwar text fill" class="cls-4" d="M462.79,88.63l-.12,84.83h-17.01v-73.29c-.08.08-.65,1.22-1.7,3.4-1.05,2.19-2.43,5.02-4.13,8.51-1.7,3.48-3.61,7.45-5.71,11.91-2.11,4.46-4.25,8.99-6.44,13.61-5.19,10.78-11.06,23.01-17.62,36.7l-3.65.12c-6.16-12.72-11.75-24.35-16.77-34.88-2.19-4.46-4.33-8.91-6.44-13.37-2.11-4.46-4.07-8.55-5.89-12.28-1.82-3.73-3.4-6.95-4.74-9.66-1.34-2.71-2.25-4.6-2.74-5.65v74.99h-4.13v-85.07l16.29.12,32.57,67.21,32.33-67.21h15.92ZM548.96,173.58h-17.01l-12.27-30.14h-34.52l-12.27,30.14h-4.13l34.76-84.95h10.82l34.64,84.95h0ZM518.7,141.01l-16.29-39.74-16.29,39.74h32.57ZM634.76,173.34h-17.38l-19.2-29.9c-1.46.16-3.28.28-5.47.36-2.19.08-4.09.12-5.71.12h-14.95l.12,29.53h-17.14v-84.95h10.82c3.24.08,6.85.12,10.82.12h12.15c6.16,0,11.91.36,17.26,1.09,5.35.73,9.99,2.11,13.92,4.13,3.93,2.03,7.03,4.78,9.3,8.26,2.27,3.48,3.4,7.98,3.4,13.49,0,3.56-.49,6.68-1.46,9.36-.97,2.67-2.31,4.98-4.01,6.93-1.7,1.94-3.73,3.59-6.08,4.92-2.35,1.34-4.94,2.49-7.78,3.46l21.39,33.06h0ZM585.91,140.28c3.81,0,7.49-.36,11.06-1.09,3.57-.73,6.72-2,9.48-3.83,2.75-1.82,4.96-4.33,6.62-7.53,1.66-3.2,2.49-7.31,2.49-12.34,0-4.54-.73-8.26-2.19-11.18-1.46-2.92-3.48-5.25-6.08-6.99-2.59-1.74-5.69-2.96-9.3-3.65-3.61-.69-7.56-1.03-11.85-1.03h-13.98v2.49c0,.53-.02,1.05-.06,1.58-.04.53-.06,1.22-.06,2.07v41.5h13.86ZM779.88,88.51l-36.22,85.07c-1.94,0-3.79-.12-5.53-.36-1.74-.24-3.34-.75-4.8-1.52-1.46-.77-2.8-1.84-4.01-3.22-1.21-1.38-2.31-3.2-3.28-5.47l-17.74-41.69-22.24,52.26c-4.37.08-7.94-.59-10.7-2.01-2.75-1.42-5.02-4.23-6.81-8.45l-31.96-74.62,17.26.12,32.09,75.23,20.17-47.64-11.79-27.71,17.14.12,32.21,75.23,31.84-75.35h4.38ZM840.28,173.58h-17.01l-12.28-30.14h-34.52l-12.27,30.14h-4.13l34.76-84.95h10.82l34.64,84.95h0ZM810.02,141.01l-16.29-39.74-16.29,39.74h32.57ZM928.88,173.34h-17.38l-19.2-29.9c-1.46.16-3.28.28-5.47.36-2.19.08-4.09.12-5.71.12h-14.95l.12,29.53h-17.14v-84.95h10.82c3.24.08,6.85.12,10.82.12h12.15c6.16,0,11.91.36,17.26,1.09,5.35.73,9.99,2.11,13.92,4.13,3.93,2.03,7.03,4.78,9.3,8.26,2.27,3.48,3.4,7.98,3.4,13.49,0,3.56-.49,6.68-1.46,9.36-.97,2.67-2.31,4.98-4.01,6.93-1.7,1.94-3.73,3.59-6.08,4.92-2.35,1.34-4.94,2.49-7.78,3.46l21.39,33.06h0ZM880.02,140.28c3.81,0,7.49-.36,11.06-1.09,3.57-.73,6.72-2,9.48-3.83,2.75-1.82,4.96-4.33,6.62-7.53,1.66-3.2,2.49-7.31,2.49-12.34,0-4.54-.73-8.26-2.19-11.18-1.46-2.92-3.48-5.25-6.08-6.99-2.59-1.74-5.69-2.96-9.3-3.65-3.61-.69-7.56-1.03-11.85-1.03h-13.98v2.49c0,.53-.02,1.05-.06,1.58-.04.53-.06,1.22-.06,2.07v41.5h13.85Z"/>
  </g>
  <g id="marwar_text_outline" data-name="marwar text outline">
    <path id="marwar_text_outline-2" data-name="marwar text outline" class="cls-4" d="M406.3,174.6l-.05-.09c-6.11-12.62-11.75-24.35-16.77-34.88-2.18-4.43-4.34-8.93-6.44-13.37-2.1-4.44-4.08-8.56-5.89-12.27-1.82-3.73-3.4-6.95-4.74-9.66-1.11-2.24-1.91-3.89-2.43-4.99v74.42h-4.46v-85.4h.16s16.39.12,16.39.12l.04.09,32.42,66.91,32.23-67h16.19v.16s-.12,84.99-.12,84.99h-17.34v-72.82c-.23.46-.65,1.31-1.39,2.84-1.05,2.19-2.43,5.02-4.13,8.51-1.69,3.46-3.61,7.46-5.71,11.91-2.11,4.46-4.25,8.99-6.44,13.61-5.29,10.99-11.22,23.34-17.62,36.7l-.04.09h-.1s-3.75.13-3.75.13ZM369.97,98.53c.49,1.05,1.38,2.9,2.73,5.65,1.34,2.71,2.92,5.94,4.74,9.66,1.81,3.71,3.8,7.84,5.9,12.28,2.1,4.43,4.26,8.93,6.44,13.37,5.01,10.5,10.64,22.21,16.73,34.79l3.44-.12c6.39-13.33,12.31-25.65,17.58-36.61,2.19-4.62,4.33-9.15,6.44-13.61,2.1-4.45,4.02-8.45,5.71-11.91,1.7-3.48,3.08-6.32,4.13-8.51,1.59-3.31,1.68-3.4,1.73-3.45l.28.12v73.12h16.69l.12-84.51h-15.66l-32.43,67.42-.15-.3-32.53-67.12-16.02-.12v84.75h3.81v-74.82l.31-.07ZM685.37,173.75c-4.08,0-7.47-.68-10.09-2.03-2.78-1.43-5.09-4.3-6.88-8.53l-32.06-74.85,17.61.12.04.1,31.93,74.88,20-47.23-11.86-27.87,17.49.12,32.1,74.98,31.74-75.1h4.73l-.1.23-36.26,85.17h-.11c-1.94,0-3.81-.12-5.55-.37-1.75-.24-3.38-.76-4.85-1.54-1.47-.77-2.83-1.87-4.06-3.26-1.22-1.38-2.33-3.24-3.31-5.51l-17.59-41.34-22.13,52.01h-.11c-.23,0-.46,0-.69,0ZM636.83,88.67l31.87,74.39c1.76,4.16,4.02,6.97,6.73,8.37,2.7,1.39,6.23,2.05,10.51,1.99l22.35-52.51.15.35,17.74,41.69c.96,2.24,2.05,4.07,3.25,5.43,1.2,1.36,2.53,2.43,3.96,3.18,1.44.76,3.03,1.26,4.75,1.5,1.7.24,3.51.36,5.4.36l36.08-84.75h-4.02l-31.95,75.61-.15-.35-32.16-75.13-16.78-.12,11.72,27.55-.03.06-20.32,47.99-32.19-75.48-16.9-.12ZM840.52,173.75h-17.37l-.04-.1-12.23-30.04h-34.3l-12.28,30.14h-4.48l.09-.22,34.8-85.05h11.04l.04.1,34.73,85.18ZM823.37,173.42h16.66l-34.5-84.63h-10.6l-34.63,84.63h3.78l12.28-30.14h34.73l.04.1,12.23,30.04ZM549.2,173.75h-17.37l-.04-.1-12.23-30.04h-34.3l-12.28,30.14h-4.48l.09-.22,34.8-85.05h11.04l.04.1,34.73,85.18ZM532.06,173.42h16.66l-34.5-84.63h-10.6l-34.63,84.63h3.78l12.28-30.14h34.73l.04.1,12.23,30.04ZM866.45,173.62h-17.46v-85.28h10.98c3.23.08,6.87.12,10.82.12h12.15c6.14,0,11.95.37,17.28,1.1,5.34.73,10.04,2.12,13.97,4.15,3.94,2.03,7.09,4.83,9.36,8.32,2.28,3.5,3.43,8.06,3.43,13.58,0,3.57-.49,6.73-1.47,9.41-.97,2.68-2.33,5.03-4.04,6.98-1.71,1.95-3.76,3.62-6.12,4.96-2.29,1.3-4.85,2.45-7.61,3.41l21.44,33.13h-17.77l-.05-.08-19.15-29.81c-1.43.16-3.24.27-5.38.35-2.18.08-4.1.12-5.72.12h-14.79l.12,29.53ZM849.31,173.3h16.81l-.12-29.53h15.11c1.61,0,3.53-.04,5.71-.12,2.18-.08,4.02-.21,5.46-.37h.1s.05.07.05.07l19.15,29.82h16.99l-21.34-32.98.2-.07c2.81-.96,5.42-2.13,7.75-3.45,2.32-1.32,4.35-2.97,6.04-4.89,1.68-1.92,3.02-4.23,3.98-6.88.96-2.64,1.45-5.77,1.45-9.3,0-5.45-1.14-9.96-3.38-13.4-2.24-3.44-5.35-6.2-9.23-8.21-3.9-2.01-8.56-3.39-13.86-4.12-5.32-.73-11.12-1.09-17.24-1.09h-12.15c-3.95,0-7.59-.04-10.82-.12h-10.65v84.63ZM572.34,173.62h-17.46v-85.28h10.98c3.23.08,6.87.12,10.82.12h12.15c6.14,0,11.95.37,17.28,1.1,5.34.73,10.04,2.12,13.97,4.15,3.94,2.03,7.09,4.83,9.36,8.32,2.28,3.5,3.43,8.06,3.43,13.58,0,3.57-.49,6.73-1.47,9.41-.97,2.68-2.33,5.03-4.04,6.98-1.71,1.95-3.76,3.62-6.12,4.96-2.29,1.3-4.85,2.45-7.61,3.41l21.44,33.13h-17.77l-.05-.08-19.15-29.81c-1.43.16-3.24.27-5.38.35-2.18.08-4.1.12-5.72.12h-14.79l.12,29.53ZM555.2,173.3h16.81l-.12-29.53h15.11c1.61,0,3.53-.04,5.71-.12,2.18-.08,4.02-.21,5.46-.37h.1s.05.07.05.07l19.16,29.82h16.99l-21.34-32.98.2-.07c2.81-.96,5.42-2.13,7.75-3.45,2.32-1.32,4.35-2.97,6.04-4.89,1.68-1.92,3.02-4.23,3.98-6.88.96-2.64,1.45-5.77,1.45-9.3,0-5.45-1.14-9.96-3.38-13.4-2.24-3.44-5.35-6.2-9.23-8.21-3.9-2.01-8.56-3.39-13.86-4.12-5.32-.73-11.12-1.09-17.24-1.09h-12.15c-3.95,0-7.59-.04-10.82-.12h-10.65v84.63ZM810.26,141.17h-33.05l.09-.22,16.29-39.74h.3l16.38,39.97ZM777.69,140.85h32.09l-16.04-39.15-16.04,39.15ZM518.94,141.17h-33.05l.09-.22,16.29-39.74h.3l16.38,39.97ZM486.37,140.85h32.09l-16.04-39.15-16.04,39.15ZM880.02,140.44h-14.02v-41.67c0-.85.02-1.55.06-2.08.04-.52.06-1.05.06-1.57v-2.65h14.14c4.29,0,8.28.35,11.88,1.04,3.61.69,6.76,1.92,9.36,3.67,2.6,1.75,4.67,4.12,6.13,7.05,1.46,2.93,2.2,6.71,2.2,11.25,0,5.03-.84,9.2-2.51,12.41-1.67,3.21-3.91,5.77-6.68,7.6-2.76,1.83-5.97,3.12-9.54,3.85-3.56.73-7.29,1.1-11.09,1.1ZM866.33,140.12h13.69c3.78,0,7.49-.37,11.03-1.09,3.53-.72,6.7-2,9.42-3.8,2.72-1.8,4.93-4.31,6.57-7.47,1.64-3.16,2.47-7.29,2.47-12.26,0-4.49-.73-8.23-2.17-11.11-1.44-2.88-3.46-5.21-6.02-6.93-2.56-1.72-5.67-2.94-9.24-3.62-3.58-.68-7.55-1.03-11.82-1.03h-13.81v2.33c0,.52-.02,1.06-.06,1.59-.04.52-.06,1.21-.06,2.05v41.34ZM585.91,140.44h-14.02v-41.67c0-.85.02-1.55.06-2.08.04-.51.06-1.04.06-1.57v-2.65h14.14c4.29,0,8.28.35,11.88,1.04,3.61.69,6.76,1.92,9.36,3.67,2.6,1.75,4.67,4.12,6.13,7.05,1.46,2.92,2.21,6.71,2.21,11.25,0,5.03-.84,9.2-2.51,12.41-1.67,3.21-3.91,5.77-6.68,7.6-2.76,1.83-5.97,3.12-9.54,3.85-3.56.73-7.29,1.1-11.09,1.1ZM572.21,140.12h13.69c3.78,0,7.49-.37,11.03-1.09,3.53-.72,6.7-2,9.42-3.8,2.72-1.8,4.93-4.31,6.57-7.47,1.64-3.16,2.47-7.29,2.47-12.26,0-4.49-.73-8.23-2.17-11.11-1.44-2.88-3.46-5.21-6.02-6.93-2.56-1.72-5.67-2.94-9.24-3.62-3.58-.68-7.55-1.03-11.82-1.03h-13.81v2.33c0,.54-.02,1.07-.06,1.59-.04.52-.06,1.21-.06,2.05v41.34Z"/>
  </g>
  <g id="Mandir_text" data-name="Mandir text">
    <path id="Mandir_text-2" data-name="Mandir text" class="cls-4" d="M405.12,202.88l-.05,34.44h-6.91v-29.76s-.26.49-.69,1.38c-.43.89-.99,2.04-1.68,3.45-.69,1.41-1.46,3.03-2.32,4.84-.86,1.81-1.73,3.65-2.62,5.53-2.11,4.38-4.49,9.34-7.16,14.9l-1.48.05c-2.5-5.17-4.77-9.89-6.81-14.16-.89-1.81-1.76-3.62-2.62-5.43-.86-1.81-1.65-3.47-2.39-4.98-.74-1.51-1.38-2.82-1.92-3.92-.54-1.1-.91-1.87-1.11-2.29v30.45h-1.68v-34.54l6.61.05,13.23,27.29,13.13-27.29h6.46ZM452.99,237.37h-6.91l-4.98-12.24h-14.01l-4.98,12.24h-1.68l14.11-34.49h4.39l14.06,34.49h0ZM440.7,224.15l-6.61-16.14-6.61,16.14h13.22ZM495.68,237.52c-.4,0-.81-.14-1.23-.42-.43-.28-.97-.83-1.63-1.65-.66-.82-1.47-1.88-2.44-3.16-.97-1.28-2.02-2.69-3.16-4.22-1.13-1.53-2.33-3.13-3.58-4.81-1.25-1.68-2.48-3.33-3.68-4.96-1.2-1.63-2.35-3.18-3.45-4.66-1.1-1.48-2.07-2.8-2.91-3.95-.84-1.15-1.52-2.08-2.05-2.79-.53-.71-.82-1.09-.89-1.16v31.63h-1.68v-34.54h7.01l18.01,24.48v-24.48h1.68v34.69h0ZM524.3,202.88c2.53,0,4.9.3,7.11.89,2.2.59,4.13,1.56,5.77,2.91,1.64,1.35,2.94,3.13,3.9,5.35.95,2.22,1.43,4.94,1.43,8.17s-.47,5.98-1.41,8.17c-.94,2.19-2.22,3.95-3.85,5.28-1.63,1.33-3.54,2.28-5.72,2.84-2.19.56-4.55.84-7.08.84h-11.2v-34.44h11.05ZM523.86,235.69c1.68,0,3.23-.19,4.66-.57,1.43-.38,2.67-1.14,3.73-2.27,1.05-1.13,1.88-2.72,2.47-4.76.59-2.04.89-4.72.89-8.04,0-3.09-.31-5.63-.94-7.62-.63-1.99-1.48-3.57-2.57-4.74-1.09-1.17-2.35-1.98-3.8-2.44-1.45-.46-2.99-.69-4.64-.69h-3.45v8.88c0,2.14,0,4.39-.02,6.76-.02,2.37-.02,4.61-.02,6.74v8.76h3.7ZM559.25,237.32v-34.44h6.96v34.44h-6.96ZM615.65,237.27h-7.06l-7.8-12.14c-.59.07-1.33.12-2.22.15-.89.03-1.66.05-2.32.05h-6.07l.05,11.99h-6.96v-34.49h4.39c1.32.03,2.78.05,4.39.05h4.93c2.5,0,4.84.15,7.01.44,2.17.3,4.05.86,5.65,1.68,1.6.82,2.85,1.94,3.78,3.36.92,1.41,1.38,3.24,1.38,5.48,0,1.45-.2,2.71-.59,3.8-.39,1.09-.94,2.02-1.63,2.81-.69.79-1.51,1.46-2.47,2-.95.54-2.01,1.01-3.16,1.41l8.68,13.42h0ZM595.82,223.85c1.55,0,3.04-.15,4.49-.44,1.45-.3,2.73-.81,3.85-1.55,1.12-.74,2.02-1.76,2.69-3.06.67-1.3,1.01-2.97,1.01-5.01,0-1.84-.3-3.36-.89-4.54-.59-1.18-1.42-2.13-2.47-2.84-1.05-.71-2.31-1.2-3.78-1.48-1.46-.28-3.07-.42-4.81-.42h-5.68v1.01c0,.21,0,.43-.02.64-.02.21-.02.49-.02.84v16.85h5.63Z"/>
  </g>
</svg>