<?xml version="1.0" encoding="UTF-8"?>
<svg id="Layer_1" data-name="Layer 1" xmlns="http://www.w3.org/2000/svg" xmlns:xlink="http://www.w3.org/1999/xlink" viewBox="0 0 1903.25 554.88">
  <defs>
    <style>
      .cls-1, .cls-2 {
        fill: #d46d4e;
      }

      .cls-3 {
        fill: #fefefe;
      }

      .cls-3, .cls-2 {
        fill-rule: evenodd;
      }

      .cls-4 {
        fill: none;
      }

      .cls-5 {
        clip-path: url(#clippath);
      }
    </style>
    <clipPath id="clippath">
      <circle class="cls-4" cx="339.19" cy="271.94" r="265.77" transform="translate(-92.94 319.49) rotate(-45)"/>
    </clipPath>
  </defs>
  <g id="Temple_Silhouette">
    <g class="cls-5">
      <path class="cls-2" d="M157.63,260.71l.07-66.87h5.3c.17,0,.31-.25.26-.4-.22-.71-1.95-6.78-2.2-6.78l-3.28.03c2.03-4.74-1.16-9.13-5.86-9.37-.87-.09-.93-2.36-1.61-2.34-.92,0-.5,2.38-1.94,2.37l.17-12.33h5.75c.19,0,.35-.27.29-.43l-2.28-6.83c.12-.19.08-.51-.22-.51l-3.11-.07c1.69-5.62-2.67-9.66-7.13-10.13-1.05-.04-1.34-3.45-1.74-3.45-.46,0-.86,3.57-2.02,3.52-4.53.37-8.61,5.06-6.79,10.21l-6.35-.09c-.3,0-.34.32-.22.51l3,7.25,3.12.11c0,2.23-.07,5.45-.03,7.04l-123.42-.66v-7.07s6.35.07,6.94.02c.58-.05.32-.55.32-.55l-7-7.77c-2.32-2.57,2.6-5.25-7.64-9.58v408.25h678.38V146.55c-10.24,4.34-5.33,7.01-7.64,9.58l-7,7.77s-.26.5.32.55c.58.05,6.94-.02,6.94-.02v7.07l-123.42.66c.03-1.58-.04-4.81-.03-7.04l3.12-.11,3-7.25c.12-.19.08-.51-.22-.51l-6.35.09c1.82-5.15-2.26-9.84-6.79-10.21-1.16.04-1.56-3.52-2.02-3.52-.4,0-.69,3.41-1.74,3.45-4.46.47-8.82,4.5-7.13,10.13l-3.11.07c-.3,0-.34.32-.22.51l-2.27,6.83c-.05.16.11.43.29.43h5.75s.17,12.32.17,12.32c-1.44,0-1.01-2.38-1.94-2.37-.68-.02-.74,2.25-1.61,2.34-4.7.24-7.89,4.64-5.86,9.37l-3.28-.03c-.25,0-1.98,6.07-2.2,6.78-.05.15.09.4.26.4h5.3s.07,66.86.07,66.86H157.63Z"/>
      <path class="cls-2" d="M333.76,129.42c-1.38,5.13-3.77,9.46-8.94,9.69-5.31.24-64.19,14.51-66.03,53.11-.3,1.13-.98.62-1.14,0-1.09-10.94-21.23-15.7-23.04-15.9-2.23-.25-2.43-8.74-4.43-8.97-2.59.19-1.56,8.97-4.65,8.97-2.67,0-22.94,4.31-23.44,19.67-2.32.69-4.38,1.45-6.22,2.28-10.77,6.92-2.88,25.48-22.1,32.21-8.13,5.03-12.39,10.1-14.59,15.13-.8.31-.66-3.28-1.12-3.27-.92,0,.1,3.92-1.79,3.91l.17-12.32h5.75c.19,0,.35-.27.29-.43l-2.28-6.83c.12-.19.08-.51-.22-.51l-3.11-.07c1.69-5.62-2.67-9.66-7.13-10.13-1.05-.04-1.34-3.45-1.74-3.45-.46,0-.86,3.56-2.02,3.52-4.53.37-8.61,5.07-6.79,10.21l-6.35-.09c-.3,0-.34.32-.22.51l3,7.25,3.12.11c.03,22.19-.22,298.58-.36,320.78,133.89.11,267.74.11,401.62,0-.14-22.19-.39-298.58-.36-320.78l3.12-.11,3-7.25c.12-.19.08-.51-.22-.51l-6.35.09c1.82-5.15-2.26-9.84-6.79-10.21-1.16.04-1.56-3.52-2.02-3.52-.4,0-.69,3.41-1.74,3.45-4.46.47-8.82,4.5-7.13,10.13l-3.11.07c-.3,0-.34.32-.22.51l-2.28,6.83c-.05.16.11.43.29.43h5.75s.17,12.32.17,12.32c-1.9,0-.87-3.92-1.79-3.91-.46-.01-.32,3.58-1.12,3.27-2.2-5.02-6.46-10.1-14.59-15.13-19.22-6.73-11.33-25.29-22.1-32.21-1.85-.82-3.9-1.58-6.22-2.28-.5-15.36-20.77-19.67-23.44-19.67-3.09,0-2.07-8.78-4.65-8.97-2,.23-2.2,8.73-4.43,8.97-1.81.2-21.96,4.96-23.04,15.9-.17.62-.84,1.13-1.14,0-1.84-38.6-60.72-52.86-66.03-53.11-5.18-.24-7.57-4.56-8.94-9.69-1.06-3.41-1.68-17.37-5.43-17.44-3.7,0-4.54,14.57-5.43,17.44Z"/>
    </g>
  </g>
  <path id="outer_circle" class="cls-1" d="M339.19,543.88c-149.95,0-271.94-121.99-271.94-271.94S189.24,0,339.19,0s271.94,121.99,271.94,271.94-121.99,271.94-271.94,271.94ZM339.19,12.34c-143.14,0-259.59,116.45-259.59,259.59s116.45,259.6,259.59,259.6,259.59-116.45,259.59-259.6S482.33,12.34,339.19,12.34Z"/>
  <path id="tilak" class="cls-3" d="M288.75,210.88c-.15,1.79-.57,2.04-.57,4.01v108.33c0,18.59.26,38.69,6.94,54.39l5.81,9.09c1.39,1.55,1.96,2.67,3.42,4.04,4.56,4.29,19.11,13.38,25.1,13.88-.63,2.35-1.6,1.79-3.89,2.99-5.94,3.1-7.95,4.59-12.59,9.19-12.29,12.19-9.91,27.44-2.62,41.89,4.37,8.67,7.43,17.12,13.04,26.51l9.96,16.41c.93,1.39,1.56,2.38,2.55,3.75,1.2,1.66,1.63,2.49,3.87,3.01,3.59-2.4,12.41-17.49,15.18-22.65,1.67-3.11,3.17-5.43,4.7-8.49,1.51-3.01,2.59-5.54,4.12-8.49l7.61-17.61c2.89-8.69,2.79-7.36,2.79-15.55,0-7.24-4.74-15.23-8.43-19.08-2.67-2.78-12.77-9.79-16.78-10.73v-1.15c4.75-.11,14.64-5.98,18.09-8.28,12.08-8.05,17.78-18.16,20.86-31.88,1.37-6.09,2.32-16.77,2.32-24.04v-127.82c0-3.3-9.03-2.29-13.18-2.29-3.74,0-4.01,2.72-4.01,7.45,0,20.74-.6,45.79.58,65.92.11,1.96-.04,3.69-.27,5.51l-1.21,63.52c-1.93,9.28-4.62,21.11-11.86,27.69-.68.61-.55.47-1.24,1.05-3.59,3-6.74,4.64-11.61,5.58-50.94,9.88-42.02-60.8-42.02-95.89v-79.67c-5-2.4-12.88-.66-16.62-.57Z"/>
  <path id="hare_krishna_text" data-name="hare krishna text" class="cls-1" d="M807.17,57.87v70.55h-14.25v-32.55h-29.62v32.55h-14.25V57.87h14.25v34.77h29.62v-34.77h14.25ZM905.22,128.52h-14.15l-10.21-25.07h-28.71l-10.21,25.07h-3.44l28.91-70.66h9l28.81,70.66h0ZM880.05,101.43l-13.54-33.05-13.54,33.05h27.09ZM1002.98,128.32h-14.45l-15.97-24.87c-1.21.13-2.73.24-4.55.3-1.82.07-3.4.1-4.75.1h-12.43l.1,24.56h-14.25V57.77h9c2.7.07,5.69.1,9,.1h10.11c5.12,0,9.91.3,14.35.91,4.45.61,8.3,1.75,11.57,3.44,3.27,1.68,5.85,3.98,7.73,6.87,1.89,2.9,2.83,6.64,2.83,11.22,0,2.96-.4,5.56-1.21,7.78-.81,2.22-1.92,4.14-3.34,5.76-1.42,1.62-3.1,2.98-5.05,4.09-1.95,1.11-4.11,2.07-6.47,2.88l17.79,27.49h0ZM962.34,100.83c3.17,0,6.23-.3,9.2-.91,2.97-.61,5.59-1.67,7.88-3.18,2.29-1.52,4.13-3.61,5.51-6.27,1.38-2.66,2.07-6.08,2.07-10.26,0-3.77-.61-6.87-1.82-9.3-1.21-2.43-2.9-4.36-5.05-5.81-2.16-1.45-4.73-2.46-7.73-3.03-3-.57-6.28-.86-9.86-.86h-11.62v2.07c0,.44-.02.88-.05,1.31-.03.44-.05,1.01-.05,1.72v34.52h11.52ZM1090.82,128.42h-54.38V57.77h52.06v3.54h-37.91v27.39h29.41v3.44h-29.41c0,4.92.03,9.54.1,13.85v19.1h40.13v3.34h0ZM1187.87,85.06c.13.2.59.96,1.36,2.27.78,1.31,1.74,3.02,2.88,5.1,1.15,2.09,2.44,4.43,3.89,7.03,1.45,2.59,2.91,5.21,4.4,7.83,3.57,6.27,7.55,13.31,11.93,21.13l-15.87.1c-3.23-5.66-6.17-10.75-8.79-15.26-1.08-1.95-2.17-3.87-3.28-5.76-1.11-1.89-2.11-3.62-2.98-5.21-.88-1.58-1.62-2.9-2.22-3.94-.61-1.04-.98-1.67-1.11-1.87l-9,10.71v21.23h-14.25V57.87h14.25v44.37l37.6-44.48h4.14l-22.95,27.29h0ZM1310.39,128.32h-14.45l-15.97-24.87c-1.21.13-2.73.24-4.55.3-1.82.07-3.4.1-4.75.1h-12.43l.1,24.56h-14.25V57.77h9c2.7.07,5.69.1,9,.1h10.11c5.12,0,9.91.3,14.35.91,4.45.61,8.31,1.75,11.57,3.44,3.27,1.68,5.85,3.98,7.73,6.87,1.89,2.9,2.83,6.64,2.83,11.22,0,2.96-.4,5.56-1.21,7.78-.81,2.22-1.92,4.14-3.34,5.76-1.42,1.62-3.1,2.98-5.05,4.09-1.95,1.11-4.11,2.07-6.47,2.88l17.79,27.49h0ZM1269.75,100.83c3.17,0,6.23-.3,9.2-.91,2.97-.61,5.59-1.67,7.88-3.18,2.29-1.52,4.13-3.61,5.51-6.27,1.38-2.66,2.07-6.08,2.07-10.26,0-3.77-.61-6.87-1.82-9.3-1.21-2.43-2.9-4.36-5.05-5.81-2.16-1.45-4.73-2.46-7.73-3.03-3-.57-6.28-.86-9.85-.86h-11.62v2.07c0,.44-.02.88-.05,1.31-.03.44-.05,1.01-.05,1.72v34.52h11.52ZM1345.37,128.42V57.87h14.25v70.55h-14.25ZM1412.6,69.9c0,2.29.72,4.21,2.17,5.76,1.45,1.55,3.39,2.91,5.81,4.09,2.43,1.18,5.17,2.24,8.24,3.18,3.07.94,6.18,1.94,9.35,2.98,3.17,1.04,6.28,2.21,9.35,3.49,3.07,1.28,5.81,2.88,8.24,4.8,2.43,1.92,4.36,4.21,5.81,6.87,1.45,2.66,2.17,5.88,2.17,9.65,0,3.5-.93,6.44-2.78,8.79-1.85,2.36-4.45,4.25-7.78,5.66-3.34,1.41-7.31,2.43-11.93,3.03-4.62.61-9.69.91-15.21.91-2.83,0-5.78-.34-8.84-1.01-3.07-.67-6.05-1.6-8.95-2.78-2.9-1.18-5.56-2.54-7.99-4.09-2.43-1.55-4.35-3.2-5.76-4.95l4.95-16.88c0,2.83.62,5.78,1.87,8.84,1.25,3.07,3.03,5.9,5.36,8.49,2.33,2.59,5.14,4.72,8.44,6.37,3.3,1.65,6.97,2.48,11.02,2.48,1.95,0,4.28-.14,6.97-.4,2.7-.27,5.27-.86,7.73-1.77,2.46-.91,4.55-2.29,6.27-4.15,1.72-1.85,2.58-4.33,2.58-7.43,0-2.43-.74-4.5-2.22-6.22-1.48-1.72-3.42-3.25-5.81-4.6-2.39-1.35-5.12-2.54-8.19-3.59-3.07-1.04-6.22-2.09-9.45-3.13-3.23-1.04-6.39-2.12-9.45-3.23-3.07-1.11-5.8-2.41-8.19-3.89-2.39-1.48-4.33-3.2-5.81-5.15-1.48-1.95-2.22-4.28-2.22-6.97,0-2.49.59-4.83,1.77-7.02,1.18-2.19,2.98-4.11,5.41-5.76,2.43-1.65,5.49-2.95,9.2-3.89,3.71-.94,8.09-1.42,13.14-1.42,1.01,0,2.76.12,5.26.35,2.49.24,5.17.66,8.04,1.26,2.86.61,5.63,1.4,8.29,2.37,2.66.98,4.63,2.21,5.91,3.69v16.98c-.74-3.1-1.94-5.98-3.59-8.64-1.65-2.66-3.64-4.95-5.96-6.87-2.33-1.92-4.94-3.44-7.83-4.55-2.9-1.11-5.96-1.67-9.2-1.67-5.05,0-9.01.96-11.88,2.88-2.86,1.92-4.3,4.3-4.3,7.13h0ZM1555.64,57.87v70.55h-14.25v-32.55h-29.62v32.55h-14.25V57.87h14.25v34.77h29.62v-34.77h14.25ZM1648.34,128.83c-.81,0-1.65-.29-2.53-.86-.88-.57-1.99-1.7-3.34-3.39-1.35-1.68-3.02-3.84-5-6.47-1.99-2.63-4.14-5.51-6.47-8.64-2.33-3.13-4.77-6.42-7.33-9.86-2.56-3.44-5.07-6.82-7.53-10.16-2.46-3.34-4.82-6.52-7.08-9.55-2.26-3.03-4.24-5.73-5.96-8.09-1.72-2.36-3.12-4.26-4.19-5.71-1.08-1.45-1.68-2.24-1.82-2.38v64.79h-3.44V57.77h14.35l36.89,50.14v-50.14h3.44v71.06h0ZM1746.39,128.52h-14.15l-10.21-25.07h-28.71l-10.21,25.07h-3.44l28.91-70.66h9l28.81,70.66h0ZM1721.22,101.43l-13.54-33.05-13.54,33.05h27.09Z"/>
  <path id="hare_krihsna_text_ouline" data-name="hare krihsna text ouline" class="cls-1" d="M1426.04,129.46c-2.85,0-5.85-.34-8.92-1.02-3.07-.67-6.09-1.61-9-2.79-2.9-1.18-5.61-2.57-8.04-4.12-2.44-1.56-4.41-3.25-5.84-5.02l-.11-.13.05-.17,4.95-16.88.65.09c0,2.77.62,5.71,1.84,8.72,1.23,3.02,3.01,5.84,5.3,8.4,2.29,2.55,5.09,4.67,8.34,6.29,3.24,1.62,6.9,2.44,10.87,2.44,1.93,0,4.27-.14,6.94-.4,2.65-.27,5.23-.85,7.65-1.75,2.4-.89,4.46-2.25,6.14-4.06,1.65-1.78,2.49-4.2,2.49-7.2,0-2.33-.72-4.35-2.14-6-1.45-1.68-3.37-3.2-5.72-4.53-2.36-1.33-5.1-2.53-8.13-3.56-3.01-1.03-6.19-2.08-9.45-3.13-3.22-1.04-6.41-2.13-9.46-3.24-3.08-1.12-5.85-2.43-8.25-3.92-2.41-1.5-4.4-3.26-5.9-5.24-1.52-2-2.29-4.42-2.29-7.18,0-2.54.61-4.95,1.81-7.18,1.2-2.23,3.06-4.21,5.51-5.88,2.44-1.67,5.57-2.99,9.3-3.94,3.71-.95,8.16-1.43,13.22-1.43,1.03,0,2.76.12,5.29.35,2.5.24,5.21.67,8.07,1.27,2.86.61,5.67,1.41,8.34,2.39,2.7.99,4.74,2.27,6.05,3.78l.08.09v17.11l-.66.08c-.73-3.06-1.92-5.93-3.55-8.55-1.62-2.62-3.6-4.9-5.89-6.79-2.29-1.89-4.89-3.4-7.74-4.49-2.85-1.09-5.9-1.65-9.08-1.65-4.96,0-8.9.95-11.69,2.82-2.75,1.85-4.15,4.15-4.15,6.85,0,2.19.7,4.06,2.08,5.53,1.41,1.51,3.34,2.87,5.71,4.02,2.4,1.17,5.16,2.23,8.19,3.17,3.03.93,6.18,1.94,9.36,2.98,3.16,1.04,6.32,2.22,9.37,3.5,3.08,1.29,5.88,2.92,8.32,4.85,2.45,1.94,4.44,4.29,5.9,6.98,1.47,2.7,2.22,6,2.22,9.81,0,3.56-.96,6.59-2.85,9-1.88,2.39-4.54,4.33-7.92,5.76-3.35,1.42-7.4,2.45-12.01,3.06-4.61.61-9.74.91-15.26.91ZM1394.87,116.22c1.37,1.67,3.25,3.26,5.57,4.75,2.4,1.53,5.07,2.9,7.93,4.07,2.87,1.17,5.86,2.1,8.89,2.76,3.02.67,5.97,1,8.77,1,5.48,0,10.59-.3,15.17-.91,4.56-.6,8.54-1.61,11.84-3.01,3.27-1.39,5.84-3.26,7.65-5.56,1.8-2.29,2.71-5.18,2.71-8.59,0-3.7-.72-6.9-2.13-9.49-1.42-2.61-3.35-4.89-5.73-6.77-2.39-1.89-5.14-3.49-8.16-4.75-3.04-1.27-6.18-2.44-9.33-3.48-3.18-1.05-6.32-2.05-9.35-2.98-3.06-.94-5.85-2.02-8.29-3.2-2.45-1.19-4.44-2.59-5.91-4.17-1.5-1.61-2.26-3.62-2.26-5.99,0-2.94,1.5-5.43,4.44-7.4,2.9-1.95,6.96-2.94,12.06-2.94,3.26,0,6.4.57,9.32,1.69,2.92,1.12,5.58,2.67,7.93,4.6,2.34,1.94,4.37,4.28,6.03,6.95,1.24,2,2.23,4.15,2.97,6.41v-14.45c-1.24-1.39-3.15-2.57-5.69-3.5-2.64-.97-5.41-1.76-8.24-2.36-2.83-.6-5.52-1.02-8-1.26-2.47-.23-4.23-.35-5.22-.35-5,0-9.4.47-13.06,1.41-3.65.93-6.71,2.22-9.09,3.84-2.37,1.61-4.15,3.51-5.3,5.64-1.15,2.13-1.73,4.44-1.73,6.87,0,2.61.72,4.89,2.16,6.77,1.45,1.91,3.37,3.62,5.72,5.07,2.36,1.46,5.09,2.76,8.13,3.86,3.05,1.11,6.22,2.19,9.44,3.23,3.26,1.05,6.44,2.11,9.46,3.14,3.07,1.05,5.85,2.26,8.24,3.61,2.42,1.36,4.4,2.93,5.9,4.67,1.53,1.77,2.3,3.94,2.3,6.43,0,3.17-.9,5.75-2.67,7.66-1.75,1.88-3.9,3.31-6.4,4.23-2.48.92-5.11,1.52-7.82,1.79-2.7.27-5.05.41-7.01.41-4.08,0-7.83-.85-11.17-2.51-3.32-1.66-6.2-3.83-8.54-6.44-2.34-2.61-4.16-5.5-5.42-8.59-.97-2.39-1.57-4.73-1.8-6.99l-4.35,14.82ZM1648.67,129.16h-.33c-.87,0-1.78-.31-2.71-.91-.92-.6-2.03-1.73-3.41-3.46-1.35-1.7-3.04-3.87-5.01-6.48-1.99-2.63-4.14-5.51-6.47-8.65-2.32-3.13-4.77-6.42-7.33-9.86-2.56-3.44-5.07-6.82-7.53-10.16-2.46-3.34-4.82-6.52-7.08-9.55-2.26-3.03-4.24-5.73-5.96-8.09-1.72-2.36-3.11-4.26-4.19-5.71-.56-.76-.95-1.27-1.22-1.62v64.17h-4.1V57.43h14.86l36.39,49.45v-49.45h4.11v71.73ZM1596.75,62.93l.57.56c.1.1.39.45,1.85,2.41,1.08,1.45,2.48,3.35,4.2,5.71,1.72,2.36,3.7,5.05,5.96,8.08,2.26,3.03,4.62,6.22,7.08,9.55,2.46,3.34,4.97,6.72,7.53,10.16,2.56,3.44,5,6.72,7.33,9.86,2.32,3.13,4.48,6.01,6.47,8.64,1.96,2.6,3.65,4.77,5,6.46,1.32,1.65,2.42,2.76,3.26,3.31.7.46,1.37.72,2.01.79V58.1h-2.77v49.8l-.6.2-36.79-50h-13.85v70.09h2.77V62.93ZM1196.27,128.86l-.1-.17c-3.18-5.56-6.13-10.69-8.79-15.26-1.07-1.93-2.17-3.87-3.29-5.76-1.16-1.98-2.14-3.69-2.98-5.21-.88-1.58-1.62-2.89-2.22-3.94-.43-.74-.7-1.19-.86-1.47l-8.62,10.27v21.44h-14.92V57.54h14.92v43.8l37.12-43.9h5.01l-.46.55-22.79,27.11c.2.33.59.98,1.24,2.08.77,1.31,1.74,3.03,2.89,5.11,1.15,2.09,2.44,4.43,3.89,7.02,1.45,2.59,2.91,5.2,4.4,7.83,3.59,6.31,7.61,13.42,11.93,21.13l.28.49-16.63.1ZM1178.1,95.92l.25.37c.18.27.71,1.18,1.12,1.89.61,1.05,1.35,2.36,2.23,3.95.84,1.52,1.81,3.22,2.98,5.2,1.12,1.9,2.22,3.84,3.29,5.77,2.63,4.52,5.55,9.59,8.69,15.09l15.11-.1c-4.21-7.52-8.13-14.46-11.65-20.63-1.48-2.63-2.95-5.24-4.4-7.84-1.45-2.59-2.75-4.94-3.89-7.03-1.14-2.08-2.11-3.79-2.88-5.09-.58-.99-1.2-2.03-1.35-2.26l-.14-.21.16-.19,22.49-26.75h-3.27l-37.5,44.36-.59-.22v-44.04h-13.58v69.89h13.58v-21.01l9.36-11.15ZM1746.89,128.86h-14.87l-10.21-25.07h-28.26l-10.21,25.07h-4.16l29.18-71.32h9.44l.08.21,29,71.11ZM1732.47,128.19h13.43l-28.54-69.99h-8.55l-28.64,69.99h2.72l10.21-25.07h29.15l10.21,25.07ZM905.72,128.86h-14.87l-.09-.21-10.12-24.86h-28.26l-10.21,25.07h-4.16l29.18-71.32h9.44l.09.21,29,71.11ZM891.3,128.19h13.43l-28.54-69.99h-8.55l-28.64,69.99h2.72l10.21-25.07h29.15l.09.21,10.12,24.86ZM1555.97,128.76h-14.92v-32.55h-28.95v32.55h-14.92V57.54h14.92v34.77h28.95v-34.77h14.92v71.22ZM1541.72,128.09h13.59V58.2h-13.59v34.77h-30.28v-34.77h-13.58v69.89h13.58v-32.55h30.28v32.55ZM1359.96,128.76h-14.92V57.54h14.92v71.22ZM1345.71,128.09h13.58V58.2h-13.58v69.89ZM1258.67,128.76h-14.92V57.43h9.33c2.73.07,5.75.1,9,.1h10.11c5.11,0,9.96.31,14.4.91,4.46.61,8.39,1.78,11.68,3.47,3.31,1.7,5.95,4.06,7.86,6.99,1.91,2.94,2.88,6.78,2.88,11.4,0,2.99-.42,5.65-1.23,7.9-.82,2.25-1.96,4.22-3.4,5.87-1.43,1.64-3.16,3.04-5.14,4.16-1.85,1.05-3.91,1.98-6.12,2.77l17.89,27.65h-15.25l-15.96-24.84c-1.18.12-2.65.22-4.37.28-1.82.07-3.42.1-4.76.1h-12.1l.1,24.56ZM1244.41,128.09h13.58l-.1-24.56h12.77c1.33,0,2.92-.03,4.74-.1,1.8-.07,3.33-.17,4.52-.3l.2-.02,15.98,24.89h13.66l-17.69-27.34.4-.14c2.32-.8,4.48-1.76,6.41-2.86,1.91-1.09,3.59-2.44,4.97-4.02,1.38-1.58,2.48-3.48,3.27-5.66.79-2.18,1.19-4.76,1.19-7.67,0-4.49-.93-8.21-2.78-11.04-1.84-2.83-4.4-5.11-7.61-6.76-3.22-1.66-7.08-2.8-11.46-3.4-4.41-.6-9.23-.91-14.31-.91h-10.11c-3.25,0-6.28-.03-9-.1h-8.65v69.99ZM1091.16,128.76h-55.05V57.43h52.72v4.2h-37.91v26.73h29.41v4.1h-29.41c0,4.77.03,9.32.1,13.51v18.78h40.13v4ZM1036.78,128.09h53.71v-2.67h-40.13v-19.44c-.07-4.29-.1-8.95-.1-13.85v-.33h29.41v-2.77h-29.41v-28.06h37.91v-2.87h-51.39v69.99ZM951.25,128.76h-14.92V57.43h9.33c2.73.07,5.75.1,9,.1h10.11c5.11,0,9.96.31,14.4.91,4.46.61,8.39,1.78,11.68,3.47,3.3,1.7,5.95,4.05,7.86,6.99,1.91,2.94,2.88,6.78,2.88,11.4,0,2.99-.42,5.65-1.23,7.9-.82,2.25-1.96,4.22-3.4,5.87-1.43,1.64-3.16,3.04-5.14,4.16-1.85,1.05-3.91,1.98-6.12,2.77l17.89,27.65h-15.25l-15.96-24.84c-1.18.12-2.65.22-4.36.28-1.82.07-3.43.1-4.76.1h-12.1l.1,24.56ZM937,128.09h13.59l-.1-24.56h12.77c1.33,0,2.92-.03,4.74-.1,1.8-.07,3.32-.17,4.52-.3l.2-.02,15.98,24.89h13.66l-17.69-27.34.4-.14c2.32-.8,4.48-1.76,6.41-2.86,1.91-1.09,3.58-2.44,4.97-4.02,1.38-1.58,2.48-3.48,3.27-5.66.79-2.18,1.19-4.76,1.19-7.67,0-4.49-.93-8.21-2.78-11.04-1.85-2.84-4.41-5.11-7.61-6.76-3.22-1.66-7.08-2.8-11.47-3.4-4.41-.6-9.23-.91-14.31-.91h-10.11c-3.25,0-6.28-.03-9-.1h-8.66v69.99ZM807.5,128.76h-14.92v-32.55h-28.95v32.55h-14.92V57.54h14.92v34.77h28.95v-34.77h14.92v71.22ZM793.25,128.09h13.59V58.2h-13.59v34.77h-30.28v-34.77h-13.59v69.89h13.59v-32.55h30.28v32.55ZM1721.72,101.77h-28.08l13.73-33.51h.62l13.73,33.51ZM1694.63,101.1h26.1l-13.05-31.84-13.05,31.84ZM880.55,101.77h-28.08l.19-.46,13.54-33.05h.62l13.73,33.51ZM853.46,101.1h26.1l-13.05-31.84-13.05,31.84ZM1269.75,101.16h-11.86v-34.85c0-.71.02-1.29.05-1.75.03-.43.05-.86.05-1.29v-2.41h11.96c3.58,0,6.91.29,9.92.86,3.03.58,5.67,1.62,7.86,3.08,2.19,1.47,3.93,3.47,5.16,5.94,1.23,2.46,1.86,5.64,1.86,9.45,0,4.21-.71,7.72-2.11,10.41-1.4,2.7-3.29,4.85-5.62,6.39-2.31,1.53-5.01,2.62-8,3.23-2.97.61-6.09.92-9.26.92ZM1258.56,100.49h11.19c3.13,0,6.2-.3,9.13-.9,2.91-.6,5.52-1.65,7.77-3.14,2.23-1.48,4.05-3.55,5.4-6.14,1.35-2.6,2.03-6,2.03-10.11,0-3.7-.6-6.78-1.78-9.15-1.18-2.36-2.84-4.28-4.94-5.68-2.11-1.42-4.67-2.42-7.61-2.98-2.96-.56-6.26-.85-9.79-.85h-11.29v1.74c0,.45-.02.89-.05,1.34-.03.44-.05,1.01-.05,1.7v34.19ZM962.34,101.16h-11.86v-34.85c0-.74.02-1.31.05-1.75.03-.43.05-.86.05-1.29v-2.41h11.96c3.57,0,6.91.29,9.92.86,3.03.58,5.67,1.62,7.86,3.08,2.19,1.47,3.93,3.47,5.17,5.94,1.23,2.46,1.86,5.64,1.86,9.45,0,4.21-.71,7.72-2.11,10.41-1.4,2.7-3.29,4.85-5.62,6.39-2.31,1.53-5.01,2.62-8,3.23-2.97.61-6.09.92-9.26.92ZM951.15,100.49h11.19c3.13,0,6.2-.3,9.13-.9,2.91-.6,5.52-1.65,7.77-3.14,2.23-1.48,4.05-3.54,5.4-6.14,1.35-2.6,2.04-6,2.04-10.11,0-3.7-.6-6.78-1.78-9.15-1.18-2.36-2.85-4.28-4.94-5.68-2.11-1.42-4.67-2.42-7.61-2.98-2.96-.56-6.26-.85-9.79-.85h-11.29v1.74c0,.45-.02.89-.05,1.34-.03.42-.05.98-.05,1.69v34.19Z"/>
  <path id="marwar_text_fill" data-name="marwar text fill" class="cls-1" d="M947.95,181.54l-.25,173.76h-34.85v-150.11c-.17.17-1.33,2.49-3.48,6.97-2.16,4.48-4.98,10.29-8.46,17.43-3.48,7.14-7.39,15.27-11.7,24.4-4.31,9.13-8.71,18.42-13.19,27.88-10.62,22.07-22.65,47.13-36.1,75.18l-7.47.25c-12.61-26.06-24.06-49.87-34.35-71.45-4.48-9.13-8.88-18.26-13.19-27.38-4.32-9.13-8.34-17.51-12.07-25.14-3.73-7.63-6.97-14.23-9.71-19.79-2.74-5.56-4.61-9.42-5.6-11.58v153.6h-8.46v-174.26l33.36.25,66.72,137.66,66.22-137.66h32.61ZM1124.45,355.55h-34.85l-25.14-61.74h-70.7l-25.14,61.74h-8.46l71.2-174.01h22.16l70.95,174.01h0ZM1062.46,288.84l-33.36-81.4-33.36,81.4h66.72ZM1300.2,355.05h-35.6l-39.33-61.24c-2.99.33-6.72.58-11.2.75-4.48.16-8.38.25-11.7.25h-30.62l.25,60.49h-35.1v-174.01h22.16c6.64.17,14.02.25,22.16.25h24.89c12.61,0,24.4.75,35.35,2.24,10.95,1.49,20.45,4.31,28.5,8.46,8.05,4.15,14.4,9.79,19.04,16.93,4.65,7.14,6.97,16.35,6.97,27.63,0,7.3-1,13.69-2.99,19.17-1.99,5.48-4.73,10.21-8.21,14.19-3.49,3.98-7.64,7.34-12.45,10.08-4.81,2.74-10.12,5.1-15.93,7.1l43.81,67.71h0ZM1200.13,287.34c7.8,0,15.35-.75,22.65-2.24,7.3-1.49,13.77-4.11,19.42-7.84,5.64-3.73,10.16-8.88,13.57-15.43,3.4-6.56,5.1-14.98,5.1-25.27,0-9.29-1.49-16.93-4.48-22.9-2.99-5.97-7.14-10.75-12.45-14.31-5.31-3.57-11.66-6.06-19.04-7.47-7.39-1.41-15.48-2.12-24.27-2.12h-28.63v5.1c0,1.08-.04,2.16-.12,3.24-.08,1.08-.13,2.49-.13,4.23v85.01h28.38ZM1597.44,181.29l-74.18,174.26c-3.98,0-7.76-.25-11.33-.75-3.57-.5-6.85-1.54-9.83-3.11-2.99-1.58-5.73-3.78-8.22-6.6-2.49-2.82-4.73-6.56-6.72-11.2l-36.35-85.39-45.56,107.05c-8.96.17-16.26-1.2-21.91-4.11-5.64-2.9-10.29-8.67-13.94-17.3l-65.47-152.85,35.35.25,65.72,154.1,41.32-97.59-24.15-56.76,35.1.25,65.97,154.1,65.22-154.34h8.96ZM1721.16,355.55h-34.85l-25.14-61.74h-70.7l-25.14,61.74h-8.46l71.2-174.01h22.16l70.95,174.01h0ZM1659.18,288.84l-33.36-81.4-33.36,81.4h66.72ZM1902.64,355.05h-35.6l-39.33-61.24c-2.99.33-6.72.58-11.2.75-4.48.16-8.38.25-11.7.25h-30.62l.25,60.49h-35.1v-174.01h22.16c6.64.17,14.02.25,22.16.25h24.89c12.61,0,24.4.75,35.35,2.24,10.95,1.49,20.45,4.31,28.5,8.46,8.05,4.15,14.4,9.79,19.04,16.93,4.65,7.14,6.97,16.35,6.97,27.63,0,7.3-1,13.69-2.99,19.17-1.99,5.48-4.73,10.21-8.21,14.19-3.49,3.98-7.63,7.34-12.45,10.08-4.81,2.74-10.12,5.1-15.93,7.1l43.81,67.71h0ZM1802.56,287.34c7.8,0,15.35-.75,22.65-2.24,7.3-1.49,13.77-4.11,19.42-7.84,5.64-3.73,10.17-8.88,13.57-15.43,3.4-6.56,5.1-14.98,5.1-25.27,0-9.29-1.49-16.93-4.48-22.9-2.99-5.97-7.14-10.75-12.45-14.31-5.31-3.57-11.66-6.06-19.04-7.47-7.39-1.41-15.48-2.12-24.27-2.12h-28.63v5.1c0,1.08-.04,2.16-.12,3.24-.08,1.08-.12,2.49-.12,4.23v85.01h28.38Z"/>
  <path id="marwar_text_outline" data-name="marwar text outline" class="cls-1" d="M832.23,357.63l-.09-.19c-12.51-25.84-24.07-49.88-34.36-71.45-4.46-9.08-8.9-18.3-13.19-27.38-4.3-9.08-8.36-17.54-12.07-25.14-3.73-7.63-6.97-14.23-9.71-19.79-2.27-4.6-3.9-7.97-4.97-10.22v152.43h-9.13v-174.93h.34s33.57.25,33.57.25l.09.19,66.42,137.04,66.01-137.23h33.15v.33s-.25,174.09-.25,174.09h-35.52v-149.15c-.48.94-1.34,2.68-2.85,5.82-2.16,4.48-4.98,10.29-8.47,17.43-3.46,7.08-7.4,15.29-11.7,24.39-4.31,9.13-8.71,18.42-13.19,27.88-10.83,22.51-22.97,47.8-36.1,75.18l-.09.18h-.2s-7.68.26-7.68.26ZM757.81,201.81c.99,2.15,2.83,5.94,5.6,11.57,2.74,5.56,5.97,12.16,9.71,19.79,3.72,7.6,7.78,16.06,12.08,25.15,4.29,9.08,8.73,18.29,13.19,27.38,10.26,21.52,21.79,45.49,34.26,71.25l7.05-.24c13.09-27.31,25.21-52.54,36.01-75,4.48-9.46,8.88-18.75,13.19-27.88,4.3-9.11,8.24-17.32,11.7-24.4,3.48-7.14,6.3-12.94,8.46-17.43,3.26-6.77,3.45-6.96,3.55-7.06l.57.24v149.78h34.19l.25-173.09h-32.07l-66.43,138.1-.3-.62-66.63-137.48-32.82-.25v173.59h7.8v-153.26l.64-.14ZM1403.85,355.9c-8.35,0-15.29-1.4-20.66-4.16-5.69-2.93-10.43-8.8-14.09-17.47l-65.67-153.32,36.08.25.09.2,65.41,153.38,40.96-96.73-24.29-57.1,35.83.25,65.75,153.58,65-153.83h9.69l-.2.46-74.27,174.46h-.22c-3.98,0-7.8-.25-11.37-.75-3.59-.5-6.93-1.56-9.94-3.15-3.01-1.59-5.8-3.83-8.31-6.67-2.5-2.83-4.78-6.63-6.78-11.29l-36.04-84.67-45.34,106.52h-.22c-.47.01-.94.02-1.41.02ZM1304.44,181.63l65.27,152.38c3.6,8.52,8.24,14.28,13.79,17.14,5.52,2.84,12.76,4.2,21.53,4.07l45.78-107.57.31.72,36.35,85.39c1.97,4.59,4.21,8.33,6.67,11.11,2.45,2.78,5.18,4.97,8.12,6.52,2.94,1.55,6.21,2.59,9.72,3.07,3.47.48,7.19.74,11.06.74l73.9-173.59h-8.24l-65.44,154.86-.31-.72-65.88-153.9-34.37-.24,24,56.42-.06.13-41.63,98.31-65.94-154.62-34.63-.24ZM1721.66,355.89h-35.57l-.08-.21-25.06-61.53h-70.25l-25.14,61.74h-9.18l.19-.46,71.28-174.22h22.6l.08.21,71.14,174.47ZM1686.53,355.22h34.13l-70.68-173.34h-21.71l-70.93,173.34h7.74l25.14-61.74h71.15l.08.21,25.06,61.53ZM1124.94,355.89h-35.57l-.08-.21-25.06-61.53h-70.25l-25.14,61.74h-9.18l.19-.46,71.28-174.22h22.6l.08.21,71.14,174.47ZM1089.82,355.22h34.13l-70.68-173.34h-21.71l-70.93,173.34h7.74l25.14-61.74h71.15l.08.21,25.06,61.53ZM1774.77,355.64h-35.77v-174.68h22.49c6.61.16,14.06.25,22.16.25h24.89c12.57,0,24.48.76,35.4,2.24,10.94,1.49,20.57,4.35,28.61,8.5,8.07,4.16,14.51,9.89,19.17,17.04,4.66,7.16,7.03,16.52,7.03,27.82,0,7.31-1.01,13.79-3.01,19.28-2,5.49-4.78,10.3-8.28,14.29-3.49,3.99-7.71,7.41-12.53,10.15-4.69,2.67-9.94,5.02-15.59,6.98l43.92,67.87h-36.39l-.1-.15-39.22-61.07c-2.93.32-6.64.56-11.02.73-4.46.16-8.41.25-11.71.25h-30.29l.25,60.49ZM1739.67,354.97h34.43l-.25-60.49h30.95c3.3,0,7.23-.08,11.69-.24,4.47-.17,8.23-.42,11.18-.75l.2-.02.11.17,39.23,61.09h34.81l-43.71-67.55.4-.14c5.77-1.98,11.11-4.35,15.88-7.07,4.76-2.71,8.92-6.07,12.36-10.01,3.44-3.93,6.18-8.67,8.15-14.08,1.97-5.41,2.97-11.82,2.97-19.05,0-11.17-2.33-20.4-6.92-27.45-4.59-7.05-10.96-12.71-18.91-16.81-7.98-4.11-17.53-6.95-28.4-8.43-10.89-1.49-22.77-2.24-35.31-2.24h-24.89c-8.1,0-15.55-.08-22.16-.25h-21.81v173.34ZM1172.33,355.64h-35.77v-174.68h22.49c6.61.16,14.06.25,22.16.25h24.89c12.57,0,24.48.76,35.4,2.24,10.94,1.49,20.57,4.35,28.61,8.5,8.07,4.16,14.51,9.89,19.17,17.04,4.66,7.16,7.03,16.52,7.03,27.82,0,7.31-1.01,13.79-3.01,19.28-2,5.49-4.78,10.3-8.28,14.29-3.49,3.99-7.71,7.41-12.53,10.15-4.69,2.67-9.94,5.02-15.59,6.98l43.92,67.87h-36.39l-.1-.15-39.22-61.07c-2.93.32-6.64.56-11.02.73-4.46.16-8.4.25-11.71.25h-30.29l.25,60.49ZM1137.23,354.97h34.43l-.25-60.49h30.95c3.3,0,7.23-.08,11.69-.24,4.47-.17,8.23-.42,11.18-.75l.2-.02.11.17,39.24,61.09h34.81l-43.71-67.55.4-.14c5.77-1.98,11.11-4.35,15.88-7.07,4.76-2.71,8.92-6.07,12.36-10.01,3.44-3.93,6.18-8.67,8.15-14.08,1.97-5.41,2.97-11.82,2.97-19.05,0-11.17-2.33-20.4-6.92-27.45-4.59-7.05-10.96-12.71-18.92-16.81-7.98-4.11-17.53-6.95-28.4-8.43-10.89-1.49-22.77-2.24-35.31-2.24h-24.89c-8.1,0-15.55-.08-22.16-.25h-21.81v173.34ZM1659.67,289.17h-67.71l.19-.46,33.36-81.4h.62l33.55,81.86ZM1592.96,288.5h65.72l-32.86-80.19-32.86,80.19ZM1062.96,289.17h-67.71l.19-.46,33.36-81.4h.62l33.55,81.86ZM996.24,288.5h65.72l-32.86-80.19-32.86,80.19ZM1802.56,287.68h-28.71v-85.35c0-1.74.04-3.18.13-4.26.08-1.07.12-2.15.12-3.21v-5.44h28.96c8.78,0,16.97.71,24.33,2.12,7.4,1.41,13.85,3.94,19.17,7.52,5.33,3.58,9.56,8.44,12.56,14.44,3,6,4.52,13.75,4.52,23.05,0,10.3-1.73,18.85-5.14,25.42-3.41,6.58-8.02,11.81-13.68,15.56-5.65,3.74-12.22,6.39-19.54,7.89-7.29,1.49-14.93,2.25-22.72,2.25ZM1774.52,287.01h28.05c7.74,0,15.34-.75,22.59-2.23,7.23-1.48,13.72-4.1,19.3-7.79,5.57-3.69,10.1-8.84,13.46-15.31,3.36-6.48,5.06-14.93,5.06-25.11,0-9.2-1.49-16.85-4.44-22.75-2.95-5.9-7.1-10.67-12.33-14.19-5.25-3.53-11.61-6.02-18.92-7.42-7.33-1.4-15.47-2.11-24.21-2.11h-28.29v4.77c0,1.07-.04,2.17-.13,3.26-.08,1.07-.12,2.48-.12,4.21v84.68ZM1200.13,287.68h-28.71v-85.35c0-1.74.04-3.18.13-4.26.08-1.05.12-2.13.12-3.21v-5.44h28.96c8.78,0,16.97.71,24.33,2.12,7.4,1.41,13.85,3.94,19.17,7.52,5.33,3.59,9.56,8.44,12.56,14.44,3,5.99,4.52,13.75,4.52,23.05,0,10.3-1.73,18.85-5.14,25.42-3.41,6.57-8.02,11.81-13.68,15.56-5.65,3.74-12.23,6.39-19.54,7.89-7.29,1.49-14.93,2.25-22.72,2.25ZM1172.08,287.01h28.05c7.74,0,15.34-.75,22.59-2.23,7.23-1.48,13.72-4.1,19.3-7.79,5.57-3.69,10.09-8.84,13.45-15.31,3.36-6.48,5.06-14.93,5.06-25.11,0-9.2-1.49-16.86-4.44-22.75-2.95-5.89-7.1-10.67-12.33-14.19-5.25-3.53-11.61-6.02-18.92-7.42-7.33-1.4-15.47-2.11-24.21-2.11h-28.29v4.77c0,1.1-.04,2.2-.13,3.26-.08,1.07-.12,2.48-.12,4.21v84.68Z"/>
  <path id="Mandir_text" data-name="Mandir text" class="cls-1" d="M829.81,415.56l-.1,70.55h-14.15v-60.95c-.07.07-.54,1.01-1.41,2.83-.88,1.82-2.02,4.18-3.44,7.08-1.41,2.9-3,6.2-4.75,9.91-1.75,3.71-3.54,7.48-5.36,11.32-4.31,8.96-9.2,19.14-14.66,30.53l-3.03.1c-5.12-10.58-9.77-20.25-13.95-29.01-1.82-3.71-3.61-7.41-5.36-11.12-1.75-3.71-3.39-7.11-4.9-10.21-1.52-3.1-2.83-5.78-3.94-8.04-1.11-2.26-1.87-3.82-2.27-4.7v62.37h-3.44v-70.76l13.54.1,27.09,55.9,26.89-55.9h13.24ZM927.86,486.21h-14.15l-10.21-25.07h-28.71l-10.21,25.07h-3.44l28.91-70.66h9l28.81,70.66h0ZM902.7,459.12l-13.54-33.05-13.54,33.05h27.09ZM1015.31,486.52c-.81,0-1.65-.29-2.53-.86-.88-.57-1.99-1.7-3.34-3.39-1.35-1.68-3.02-3.84-5-6.47-1.99-2.63-4.14-5.51-6.47-8.64-2.32-3.13-4.77-6.42-7.33-9.86-2.56-3.44-5.07-6.82-7.53-10.16-2.46-3.34-4.82-6.52-7.08-9.55-2.26-3.03-4.25-5.73-5.96-8.09-1.72-2.36-3.12-4.26-4.2-5.71-1.08-1.45-1.68-2.24-1.82-2.38v64.79h-3.44v-70.76h14.35l36.89,50.14v-50.14h3.44v71.06h0ZM1073.94,415.56c5.19,0,10.04.61,14.56,1.82,4.52,1.21,8.46,3.2,11.83,5.96,3.37,2.76,6.03,6.42,7.98,10.97,1.96,4.55,2.93,10.13,2.93,16.73s-.96,12.25-2.88,16.73c-1.92,4.48-4.55,8.09-7.88,10.82-3.34,2.73-7.24,4.67-11.73,5.81-4.48,1.15-9.32,1.72-14.51,1.72h-22.95v-70.55h22.64ZM1073.03,482.78c3.44,0,6.62-.39,9.55-1.16,2.93-.78,5.47-2.33,7.63-4.65,2.16-2.32,3.84-5.58,5.05-9.75,1.21-4.18,1.82-9.67,1.82-16.48,0-6.33-.64-11.54-1.92-15.62-1.28-4.08-3.03-7.31-5.26-9.7-2.22-2.39-4.82-4.06-7.78-5-2.96-.94-6.13-1.41-9.5-1.41h-7.07v18.19c0,4.38-.02,9-.05,13.85-.03,4.85-.05,9.45-.05,13.8v17.94h7.58ZM1145.52,486.11v-70.55h14.25v70.55h-14.25ZM1261.06,486.01h-14.45l-15.97-24.87c-1.21.13-2.73.24-4.55.3-1.82.07-3.4.1-4.75.1h-12.43l.1,24.56h-14.25v-70.66h9c2.7.07,5.69.1,9,.1h10.11c5.12,0,9.91.3,14.35.91,4.45.61,8.3,1.75,11.57,3.44,3.27,1.68,5.85,3.98,7.73,6.87,1.89,2.9,2.83,6.64,2.83,11.22,0,2.96-.4,5.56-1.21,7.78-.81,2.22-1.92,4.15-3.34,5.76-1.42,1.62-3.1,2.98-5.05,4.09-1.95,1.11-4.11,2.07-6.47,2.88l17.79,27.49h0ZM1220.43,458.52c3.17,0,6.23-.3,9.2-.91,2.97-.61,5.59-1.67,7.88-3.18,2.29-1.52,4.13-3.6,5.51-6.27,1.38-2.66,2.07-6.08,2.07-10.26,0-3.77-.61-6.87-1.82-9.3-1.21-2.43-2.9-4.36-5.05-5.81-2.16-1.45-4.73-2.46-7.73-3.03-3-.57-6.28-.86-9.85-.86h-11.62v2.07c0,.44-.02.88-.05,1.31-.03.44-.05,1.01-.05,1.72v34.52h11.52Z"/>
</svg>