<?xml version="1.0" encoding="UTF-8"?>
<!DOCTYPE svg PUBLIC "-//W3C//DTD SVG 1.1//EN" "http://www.w3.org/Graphics/SVG/1.1/DTD/svg11.dtd">
<!-- Creator: CorelDRAW -->
<svg xmlns="http://www.w3.org/2000/svg" xml:space="preserve" width="0.170717in" height="0.170732in" version="1.1" style="shape-rendering:geometricPrecision; text-rendering:geometricPrecision; image-rendering:optimizeQuality; fill-rule:evenodd; clip-rule:evenodd"
viewBox="0 0 21.64 21.64"
 xmlns:xlink="http://www.w3.org/1999/xlink"
 xmlns:xodm="http://www.corel.com/coreldraw/odm/2003">
 <defs>
  <style type="text/css">
   <![CDATA[
    .fil2 {fill:#FEFEFE}
    .fil0 {fill:#D46D4E}
    .fil1 {fill:#D46D4E;fill-rule:nonzero}
   ]]>
  </style>
    <clipPath id="id0">
     <path d="M10.82 0.26c5.83,0 10.56,4.73 10.56,10.56 0,5.83 -4.73,10.56 -10.56,10.56 -5.83,0 -10.56,-4.73 -10.56,-10.56 0,-5.83 4.73,-10.56 10.56,-10.56z"/>
    </clipPath>
 </defs>
 <g id="Layer_x0020_1">
  <metadata id="CorelCorpID_0Corel-Layer"/>
  <g id="_1503057666384">
   <g>
   </g>
   <g style="clip-path:url(#id0)">
    <g>
     <path class="fil0" d="M3.6 10.37l0 -2.66 0.21 0c0.01,0 0.01,-0.01 0.01,-0.02 -0.01,-0.03 -0.08,-0.27 -0.09,-0.27l-0.13 0c0.08,-0.19 -0.05,-0.36 -0.23,-0.37 -0.03,-0 -0.04,-0.09 -0.06,-0.09 -0.04,-0 -0.02,0.09 -0.08,0.09l0.01 -0.49 0.23 0c0.01,0 0.01,-0.01 0.01,-0.02l-0.09 -0.27c0,-0.01 0,-0.02 -0.01,-0.02l-0.12 -0c0.07,-0.22 -0.11,-0.38 -0.28,-0.4 -0.04,-0 -0.05,-0.14 -0.07,-0.14 -0.02,0 -0.03,0.14 -0.08,0.14 -0.18,0.01 -0.34,0.2 -0.27,0.41l-0.25 -0c-0.01,0 -0.01,0.01 -0.01,0.02l0.12 0.29 0.12 0c0,0.09 -0,0.22 -0,0.28l-4.9 -0.03 0 -0.28c0,0 0.25,0 0.28,0 0.02,-0 0.01,-0.02 0.01,-0.02l-0.28 -0.31c-0.09,-0.1 0.1,-0.21 -0.3,-0.38l0 16.22 0 0 13.48 0 13.48 0 0 0 0 -16.22c-0.41,0.17 -0.21,0.28 -0.3,0.38l-0.28 0.31c0,0 -0.01,0.02 0.01,0.02 0.02,0 0.28,-0 0.28,-0l0 0.28 -4.9 0.03c0,-0.06 -0,-0.19 -0,-0.28l0.12 -0 0.12 -0.29c0,-0.01 0,-0.02 -0.01,-0.02l-0.25 0c0.07,-0.21 -0.09,-0.39 -0.27,-0.41 -0.05,0 -0.06,-0.14 -0.08,-0.14 -0.02,0 -0.03,0.14 -0.07,0.14 -0.18,0.02 -0.35,0.18 -0.28,0.4l-0.12 0c-0.01,0 -0.01,0.01 -0.01,0.02l-0.09 0.27c-0,0.01 0,0.02 0.01,0.02l0.23 0 0.01 0.49c-0.06,0 -0.04,-0.09 -0.08,-0.09 -0.03,-0 -0.03,0.09 -0.06,0.09 -0.19,0.01 -0.31,0.18 -0.23,0.37l-0.13 -0c-0.01,0 -0.08,0.24 -0.09,0.27 -0,0.01 0,0.02 0.01,0.02l0.21 0 0 2.66 -7.22 0 -7.22 0z"/>
     <path class="fil0" d="M10.6 5.15c-0.05,0.2 -0.15,0.38 -0.36,0.39 -0.21,0.01 -2.55,0.58 -2.62,2.11 -0.01,0.04 -0.04,0.02 -0.05,0 -0.04,-0.43 -0.84,-0.62 -0.92,-0.63 -0.09,-0.01 -0.1,-0.35 -0.18,-0.36 -0.1,0.01 -0.06,0.36 -0.19,0.36 -0.11,0 -0.91,0.17 -0.93,0.78 -0.09,0.03 -0.17,0.06 -0.25,0.09 -0.43,0.28 -0.11,1.01 -0.88,1.28 -0.32,0.2 -0.49,0.4 -0.58,0.6 -0.03,0.01 -0.03,-0.13 -0.04,-0.13 -0.04,0 0,0.16 -0.07,0.16l0.01 -0.49 0.23 0c0.01,0 0.01,-0.01 0.01,-0.02l-0.09 -0.27c0,-0.01 0,-0.02 -0.01,-0.02l-0.12 -0c0.07,-0.22 -0.11,-0.38 -0.28,-0.4 -0.04,-0 -0.05,-0.14 -0.07,-0.14 -0.02,0 -0.03,0.14 -0.08,0.14 -0.18,0.01 -0.34,0.2 -0.27,0.41l-0.25 -0c-0.01,0 -0.01,0.01 -0.01,0.02l0.12 0.29 0.12 0c0,0.88 -0.01,11.87 -0.01,12.75 5.32,0 10.64,0 15.96,0 -0.01,-0.88 -0.02,-11.87 -0.01,-12.75l0.12 -0 0.12 -0.29c0,-0.01 0,-0.02 -0.01,-0.02l-0.25 0c0.07,-0.21 -0.09,-0.39 -0.27,-0.41 -0.05,0 -0.06,-0.14 -0.08,-0.14 -0.02,0 -0.03,0.14 -0.07,0.14 -0.18,0.02 -0.35,0.18 -0.28,0.4l-0.12 0c-0.01,0 -0.01,0.01 -0.01,0.02l-0.09 0.27c-0,0.01 0,0.02 0.01,0.02l0.23 0 0.01 0.49c-0.08,0 -0.03,-0.16 -0.07,-0.16 -0.02,-0 -0.01,0.14 -0.04,0.13 -0.09,-0.2 -0.26,-0.4 -0.58,-0.6 -0.76,-0.27 -0.45,-1 -0.88,-1.28 -0.07,-0.03 -0.16,-0.06 -0.25,-0.09 -0.02,-0.61 -0.83,-0.78 -0.93,-0.78 -0.12,0 -0.08,-0.35 -0.19,-0.36 -0.08,0.01 -0.09,0.35 -0.18,0.36 -0.07,0.01 -0.87,0.2 -0.92,0.63 -0.01,0.02 -0.03,0.04 -0.05,0 -0.07,-1.53 -2.41,-2.1 -2.62,-2.11 -0.21,-0.01 -0.3,-0.18 -0.36,-0.39 -0.04,-0.14 -0.07,-0.69 -0.22,-0.69 -0.15,0 -0.18,0.58 -0.22,0.69z"/>
    </g>
   </g>
   <g>
    <path class="fil1" d="M21.64 10.82l-0.51 0 0 0 -0.01 -0.53 -0.04 -0.52 -0.07 -0.52 -0.09 -0.51 -0.11 -0.5 -0.14 -0.49 -0.16 -0.48 -0.18 -0.47 -0.21 -0.46 -0.23 -0.44 -0.25 -0.43 -0.27 -0.42 -0.29 -0.4 -0.31 -0.39 -0.32 -0.37 -0.34 -0.36 -0.36 -0.34 -0.37 -0.32 -0.39 -0.31 -0.4 -0.29 -0.42 -0.27 -0.43 -0.25 -0.44 -0.23 -0.46 -0.21 -0.47 -0.18 -0.48 -0.16 -0.49 -0.14 -0.5 -0.11 -0.51 -0.09 -0.52 -0.07 -0.52 -0.04 -0.53 -0.01 0 -0.51 0.56 0.01 0.55 0.04 0.54 0.07 0.53 0.1 0.52 0.12 0.51 0.15 0.5 0.17 0.49 0.19 0.48 0.22 0.47 0.24 0.45 0.26 0.44 0.28 0.42 0.3 0.41 0.32 0.39 0.34 0.38 0.36 0.36 0.38 0.34 0.39 0.32 0.41 0.3 0.42 0.28 0.44 0.26 0.45 0.24 0.47 0.22 0.48 0.19 0.49 0.17 0.5 0.15 0.51 0.12 0.52 0.1 0.53 0.07 0.54 0.04 0.55 0.01 0.56 0 0zm-10.82 10.82l0 -0.51 0 0 0.53 -0.01 0.52 -0.04 0.52 -0.07 0.51 -0.09 0.5 -0.11 0.49 -0.14 0.48 -0.16 0.47 -0.18 0.46 -0.21 0.44 -0.23 0.43 -0.25 0.42 -0.27 0.4 -0.29 0.39 -0.31 0.37 -0.32 0.36 -0.34 0.34 -0.36 0.32 -0.37 0.31 -0.39 0.29 -0.4 0.27 -0.42 0.25 -0.43 0.23 -0.44 0.21 -0.46 0.18 -0.47 0.16 -0.48 0.14 -0.49 0.11 -0.5 0.09 -0.51 0.07 -0.52 0.04 -0.52 0.01 -0.53 0.51 0 -0.01 0.56 -0.04 0.55 -0.07 0.54 -0.1 0.53 -0.12 0.52 -0.15 0.51 -0.17 0.5 -0.19 0.49 -0.22 0.48 -0.24 0.47 -0.26 0.45 -0.28 0.44 -0.3 0.42 -0.32 0.41 -0.34 0.39 -0.36 0.38 -0.38 0.36 -0.39 0.34 -0.41 0.32 -0.42 0.3 -0.44 0.28 -0.45 0.26 -0.47 0.24 -0.48 0.22 -0.49 0.19 -0.5 0.17 -0.51 0.15 -0.52 0.12 -0.53 0.1 -0.54 0.07 -0.55 0.04 -0.56 0.01 0 0zm-10.82 -10.82l0.51 0 0 0 0.01 0.53 0.04 0.52 0.07 0.52 0.09 0.51 0.11 0.5 0.14 0.49 0.16 0.48 0.18 0.47 0.21 0.46 0.23 0.44 0.25 0.43 0.27 0.42 0.29 0.4 0.31 0.39 0.32 0.37 0.34 0.36 0.36 0.34 0.37 0.32 0.39 0.31 0.4 0.29 0.42 0.27 0.43 0.25 0.44 0.23 0.46 0.21 0.47 0.18 0.48 0.16 0.49 0.14 0.5 0.11 0.51 0.09 0.52 0.07 0.52 0.04 0.53 0.01 0 0.51 -0.56 -0.01 -0.55 -0.04 -0.54 -0.07 -0.53 -0.1 -0.52 -0.12 -0.51 -0.15 -0.5 -0.17 -0.49 -0.19 -0.48 -0.22 -0.47 -0.24 -0.45 -0.26 -0.44 -0.28 -0.42 -0.3 -0.41 -0.32 -0.39 -0.34 -0.38 -0.36 -0.36 -0.38 -0.34 -0.39 -0.32 -0.41 -0.3 -0.42 -0.28 -0.44 -0.26 -0.45 -0.24 -0.47 -0.22 -0.48 -0.19 -0.49 -0.17 -0.5 -0.15 -0.51 -0.12 -0.52 -0.1 -0.53 -0.07 -0.54 -0.04 -0.55 -0.01 -0.56 0 0zm10.82 -10.82l0 0.51 0 0 -0.53 0.01 -0.52 0.04 -0.52 0.07 -0.51 0.09 -0.5 0.11 -0.49 0.14 -0.48 0.16 -0.47 0.18 -0.46 0.21 -0.44 0.23 -0.43 0.25 -0.42 0.27 -0.4 0.29 -0.39 0.31 -0.37 0.32 -0.36 0.34 -0.34 0.36 -0.32 0.37 -0.31 0.39 -0.29 0.4 -0.27 0.42 -0.25 0.43 -0.23 0.44 -0.21 0.46 -0.18 0.47 -0.16 0.48 -0.14 0.49 -0.11 0.5 -0.09 0.51 -0.07 0.52 -0.04 0.52 -0.01 0.53 -0.51 0 0.01 -0.56 0.04 -0.55 0.07 -0.54 0.1 -0.53 0.12 -0.52 0.15 -0.51 0.17 -0.5 0.19 -0.49 0.22 -0.48 0.24 -0.47 0.26 -0.45 0.28 -0.44 0.3 -0.42 0.32 -0.41 0.34 -0.39 0.36 -0.38 0.38 -0.36 0.39 -0.34 0.41 -0.32 0.42 -0.3 0.44 -0.28 0.45 -0.26 0.47 -0.24 0.48 -0.22 0.49 -0.19 0.5 -0.17 0.51 -0.15 0.52 -0.12 0.53 -0.1 0.54 -0.07 0.55 -0.04 0.56 -0.01 0 0z"/>
   </g>
   <path class="fil2" d="M8.81 8.39c-0.01,0.07 -0.02,0.08 -0.02,0.16l0 4.3c0,0.74 0.01,1.54 0.28,2.16l0.23 0.36c0.06,0.06 0.08,0.11 0.14,0.16 0.18,0.17 0.76,0.53 1,0.55 -0.02,0.09 -0.06,0.07 -0.15,0.12 -0.24,0.12 -0.32,0.18 -0.5,0.37 -0.49,0.48 -0.39,1.09 -0.1,1.66 0.17,0.34 0.3,0.68 0.52,1.05l0.4 0.65c0.04,0.06 0.06,0.09 0.1,0.15 0.05,0.07 0.06,0.1 0.15,0.12 0.14,-0.1 0.49,-0.7 0.6,-0.9 0.07,-0.12 0.13,-0.22 0.19,-0.34 0.06,-0.12 0.1,-0.22 0.16,-0.34l0.3 -0.7c0.11,-0.35 0.11,-0.29 0.11,-0.62 0,-0.29 -0.19,-0.61 -0.34,-0.76 -0.11,-0.11 -0.51,-0.39 -0.67,-0.43l0 -0.05c0.19,-0 0.58,-0.24 0.72,-0.33 0.48,-0.32 0.71,-0.72 0.83,-1.27 0.05,-0.24 0.09,-0.67 0.09,-0.96l0 -5.08c0,-0.13 -0.36,-0.09 -0.52,-0.09 -0.15,0 -0.16,0.11 -0.16,0.3 0,0.82 -0.02,1.82 0.02,2.62 0,0.08 -0,0.15 -0.01,0.22l-0.05 2.52c-0.08,0.37 -0.18,0.84 -0.47,1.1 -0.03,0.02 -0.02,0.02 -0.05,0.04 -0.14,0.12 -0.27,0.18 -0.46,0.22 -2.02,0.39 -1.67,-2.42 -1.67,-3.81 0,-1.06 0,-2.11 0,-3.17 -0.2,-0.1 -0.51,-0.03 -0.66,-0.02z"/>
  </g>
 </g>
</svg>
